<svg width="203" height="178" viewBox="0 0 203 178" fill="none" xmlns="http://www.w3.org/2000/svg">
<g filter="url(#filter0_d_47_2)">
<path d="M80.5293 81.25C80.4062 81.4902 80.2627 81.7188 80.0986 81.9355C79.9404 82.1465 79.7734 82.3428 79.5977 82.5244C79.4219 82.7002 79.2461 82.8643 79.0703 83.0166C78.8945 83.1631 78.7334 83.292 78.5869 83.4033V84.4141C78.5869 85.1816 78.5254 85.8643 78.4023 86.4619C78.2852 87.0596 78.1123 87.5664 77.8838 87.9824C77.6611 88.3984 77.3916 88.7148 77.0752 88.9316C76.7646 89.1484 76.416 89.2568 76.0293 89.2568C75.8184 89.2568 75.625 89.2129 75.4492 89.125C75.2734 89.043 75.1211 88.9287 74.9922 88.7822C74.8691 88.6357 74.7725 88.4629 74.7021 88.2637C74.6318 88.0703 74.5967 87.8623 74.5967 87.6396C74.5967 87.2119 74.667 86.8164 74.8076 86.4531C74.9541 86.0957 75.1504 85.7559 75.3965 85.4336C75.6426 85.1172 75.9268 84.8154 76.249 84.5283C76.5713 84.2354 76.9141 83.9453 77.2773 83.6582C77.2832 83.3359 77.292 83.0166 77.3037 82.7002C77.3213 82.3838 77.3359 82.085 77.3477 81.8037C77.3652 81.5225 77.3799 81.2676 77.3916 81.0391C77.4092 80.8105 77.4238 80.623 77.4355 80.4766C77.2363 80.8809 77.0107 81.2793 76.7588 81.6719C76.5127 82.0586 76.249 82.4277 75.9678 82.7793C75.6865 83.1309 75.3906 83.4561 75.0801 83.7549C74.7754 84.0479 74.4678 84.3027 74.1572 84.5195C73.8467 84.7363 73.5361 84.9033 73.2256 85.0205C72.9209 85.1436 72.6279 85.2051 72.3467 85.2051C72.0303 85.2051 71.7285 85.1406 71.4414 85.0117C71.1602 84.8887 70.9111 84.6924 70.6943 84.4229C70.4834 84.1533 70.3164 83.8076 70.1934 83.3857C70.0645 82.9639 70 82.46 70 81.874C70 81.2178 70.0732 80.5439 70.2197 79.8525C70.3662 79.1611 70.5684 78.4756 70.8262 77.7959C71.084 77.1162 71.3916 76.4512 71.749 75.8008C72.1064 75.1504 72.4961 74.5381 72.918 73.9639C73.3398 73.3838 73.7881 72.8535 74.2627 72.373C74.7373 71.8867 75.2207 71.4678 75.7129 71.1162C76.2051 70.7646 76.6973 70.4922 77.1895 70.2988C77.6875 70.0996 78.1709 70 78.6396 70C79.1318 70 79.5244 70.126 79.8174 70.3779C80.1162 70.624 80.2656 70.9756 80.2656 71.4326C80.2656 71.6787 80.2129 71.9189 80.1074 72.1533C80.0078 72.3818 79.8701 72.6045 79.6943 72.8213C79.5244 73.0322 79.3311 73.2344 79.1143 73.4277C78.8975 73.6152 78.6748 73.7881 78.4463 73.9463C78.2236 74.1045 78.001 74.2451 77.7783 74.3682C77.5615 74.4912 77.3682 74.5938 77.1982 74.6758L76.9346 74.3154C77.1572 74.2041 77.4004 74.0459 77.6641 73.8408C77.9277 73.6357 78.1738 73.4043 78.4023 73.1465C78.6309 72.8887 78.8213 72.6104 78.9736 72.3115C79.126 72.0127 79.2021 71.7139 79.2021 71.415C79.2021 71.1631 79.1348 70.9551 79 70.791C78.8711 70.6211 78.6631 70.5361 78.376 70.5361C77.9307 70.5361 77.4531 70.6738 76.9434 70.9492C76.4395 71.2246 75.9355 71.6084 75.4316 72.1006C74.9336 72.5928 74.4561 73.1816 73.999 73.8672C73.542 74.5469 73.1377 75.2939 72.7861 76.1084C72.4346 76.9229 72.1533 77.7871 71.9424 78.7012C71.7314 79.6152 71.626 80.5527 71.626 81.5137C71.626 81.9355 71.6553 82.3135 71.7139 82.6475C71.7783 82.9814 71.8662 83.2656 71.9775 83.5C72.0947 83.7285 72.2354 83.9072 72.3994 84.0361C72.5693 84.1592 72.7598 84.2207 72.9707 84.2207C73.2285 84.2207 73.5098 84.1416 73.8145 83.9834C74.1191 83.8252 74.4238 83.6113 74.7285 83.3418C75.0391 83.0723 75.3438 82.7617 75.6426 82.4102C75.9414 82.0527 76.2168 81.6777 76.4688 81.2852C76.7207 80.8926 76.9404 80.4941 77.1279 80.0898C77.3154 79.6855 77.4531 79.3018 77.541 78.9385C77.5762 78.5107 77.6113 78.1211 77.6465 77.7695C77.6816 77.4121 77.7139 77.0986 77.7432 76.8291C77.7783 76.5596 77.8105 76.3428 77.8398 76.1787C77.8691 76.0088 77.8955 75.8975 77.9189 75.8447C77.9658 75.7568 78.0332 75.6689 78.1211 75.5811C78.209 75.4932 78.3027 75.417 78.4023 75.3525C78.5078 75.2822 78.6104 75.2266 78.71 75.1855C78.8096 75.1445 78.8945 75.124 78.9648 75.124C79.0586 75.124 79.1201 75.1621 79.1494 75.2383C79.1846 75.3145 79.2021 75.3965 79.2021 75.4844C79.2021 75.7422 79.1582 76.085 79.0703 76.5127C78.9824 76.9404 78.8711 77.4385 78.7363 78.0068C78.6777 78.2529 78.6338 78.5781 78.6045 78.9824C78.5811 79.3809 78.5635 79.8086 78.5518 80.2656C78.5459 80.7168 78.543 81.1738 78.543 81.6367C78.543 82.0938 78.54 82.5039 78.5342 82.8672C78.9678 82.5508 79.3135 82.2256 79.5713 81.8916C79.835 81.5518 80.0342 81.2471 80.1689 80.9775L80.2656 80.793L80.626 81.0654L80.5293 81.25ZM77.2598 84.3086C76.9844 84.5254 76.7324 84.7539 76.5039 84.9941C76.2754 85.2344 76.0791 85.4922 75.915 85.7676C75.7568 86.043 75.6309 86.3418 75.5371 86.6641C75.4492 86.9922 75.4053 87.3467 75.4053 87.7275C75.4053 88.0908 75.4639 88.3604 75.5811 88.5361C75.6982 88.7178 75.8477 88.8086 76.0293 88.8086C76.2109 88.8086 76.375 88.7295 76.5215 88.5713C76.6738 88.4189 76.8027 88.1641 76.9082 87.8066C77.0195 87.4551 77.1045 86.9922 77.1631 86.418C77.2275 85.8438 77.2598 85.1406 77.2598 84.3086ZM82.8672 83.7637C83.0723 83.7637 83.2803 83.7109 83.4912 83.6055C83.708 83.5 83.9248 83.3359 84.1416 83.1133C84.3643 82.8906 84.5928 82.6035 84.8271 82.252C85.0615 81.8945 85.3018 81.4697 85.5479 80.9775L85.6357 80.793L85.9961 81.0654L85.9082 81.25C85.5918 81.877 85.2754 82.4131 84.959 82.8584C84.6484 83.3037 84.3408 83.667 84.0361 83.9482C83.7373 84.2295 83.4414 84.4346 83.1484 84.5635C82.8555 84.6924 82.5742 84.7568 82.3047 84.7568C81.9238 84.7568 81.584 84.6777 81.2852 84.5195C80.9863 84.3613 80.7344 84.1475 80.5293 83.8779C80.3242 83.6025 80.1689 83.2861 80.0635 82.9287C79.9521 82.5654 79.8965 82.1846 79.8965 81.7861C79.8965 81.1533 79.9844 80.5791 80.1602 80.0635C80.3301 79.542 80.5586 79.0967 80.8457 78.7275C81.1387 78.3584 81.4697 78.0713 81.8389 77.8662C82.208 77.6611 82.5918 77.5586 82.9902 77.5586C83.3945 77.5586 83.7021 77.6611 83.9131 77.8662C84.1299 78.0713 84.2383 78.3291 84.2383 78.6396C84.2383 78.9385 84.1533 79.2197 83.9834 79.4834C83.8135 79.7412 83.582 79.9961 83.2891 80.248C83.002 80.4941 82.668 80.7402 82.2871 80.9863C81.9062 81.2266 81.5049 81.4756 81.083 81.7334C81.124 82.0381 81.1943 82.3164 81.2939 82.5684C81.3936 82.8145 81.5195 83.0283 81.6719 83.21C81.8242 83.3857 82 83.5234 82.1992 83.623C82.3984 83.7168 82.6211 83.7637 82.8672 83.7637ZM83.1396 78.9033C83.1396 78.6689 83.0752 78.4844 82.9463 78.3496C82.8232 78.2148 82.6709 78.1475 82.4893 78.1475C82.3369 78.1475 82.1758 78.2031 82.0059 78.3145C81.8359 78.4199 81.6807 78.5928 81.54 78.833C81.3994 79.0674 81.2822 79.3691 81.1885 79.7383C81.0947 80.1074 81.0479 80.5557 81.0479 81.083V81.2852C81.2471 81.1797 81.4668 81.042 81.707 80.8721C81.9531 80.6963 82.1816 80.5029 82.3926 80.292C82.6035 80.0811 82.7793 79.8584 82.9199 79.624C83.0664 79.3838 83.1396 79.1436 83.1396 78.9033ZM93.001 81.0654L92.9043 81.25C92.7051 81.6484 92.4385 81.9678 92.1045 82.208C91.7764 82.4424 91.4189 82.5947 91.0322 82.665C90.9268 82.9639 90.7891 83.2422 90.6191 83.5C90.4551 83.752 90.2646 83.9717 90.0479 84.1592C89.8369 84.3467 89.5967 84.4932 89.3271 84.5986C89.0635 84.7041 88.7764 84.7568 88.4658 84.7568C88.0146 84.7568 87.6074 84.6631 87.2441 84.4756C86.8867 84.2822 86.582 84.0244 86.3301 83.7021C86.0781 83.374 85.8848 82.9932 85.75 82.5596C85.6152 82.1201 85.5479 81.6514 85.5479 81.1533C85.5479 80.7197 85.5977 80.3271 85.6973 79.9756C85.7969 79.6182 85.9229 79.3018 86.0752 79.0264C86.2275 78.7451 86.3975 78.502 86.585 78.2969C86.7725 78.0859 86.957 77.9131 87.1387 77.7783C87.3203 77.6436 87.4844 77.5439 87.6309 77.4795C87.7832 77.4092 87.8975 77.374 87.9736 77.374L88.0879 77.6816C87.8477 77.8574 87.6338 78.1035 87.4463 78.4199C87.2822 78.6895 87.1328 79.0469 86.998 79.4922C86.8691 79.9375 86.8047 80.4912 86.8047 81.1533C86.8047 81.5576 86.8428 81.9502 86.9189 82.3311C86.9951 82.7119 87.1064 83.0488 87.2529 83.3418C87.3994 83.6348 87.5781 83.8691 87.7891 84.0449C88.0059 84.2207 88.249 84.3086 88.5186 84.3086C88.8877 84.3086 89.1924 84.1621 89.4326 83.8691C89.6787 83.5703 89.8604 83.1631 89.9775 82.6475C89.6729 82.583 89.3828 82.4629 89.1074 82.2871C88.832 82.1113 88.5889 81.8945 88.3779 81.6367C88.167 81.373 87.9971 81.0713 87.8682 80.7314C87.7451 80.3916 87.6836 80.0225 87.6836 79.624C87.6836 79.2959 87.7246 79.0088 87.8066 78.7627C87.8945 78.5107 88.0088 78.3027 88.1494 78.1387C88.29 77.9688 88.4512 77.8428 88.6328 77.7607C88.8203 77.6729 89.0166 77.6289 89.2217 77.6289C89.4619 77.6289 89.708 77.6992 89.96 77.8398C90.2119 77.9746 90.4404 78.1797 90.6455 78.4551C90.8506 78.7246 91.0176 79.0645 91.1465 79.4746C91.2754 79.8848 91.3398 80.3623 91.3398 80.9072C91.3398 81.1123 91.3281 81.3145 91.3047 81.5137C91.2812 81.7129 91.2461 81.9062 91.1992 82.0938C91.4805 82.0117 91.7354 81.8799 91.9639 81.6982C92.1982 81.5166 92.3916 81.2764 92.5439 80.9775L92.6406 80.793L93.001 81.0654ZM88.2637 79.5537C88.2637 79.8994 88.3105 80.2188 88.4043 80.5117C88.5039 80.7988 88.6357 81.0537 88.7998 81.2764C88.9639 81.4932 89.1543 81.6748 89.3711 81.8213C89.5879 81.9678 89.8193 82.0703 90.0654 82.1289C90.0947 81.9648 90.1123 81.7949 90.1182 81.6191C90.1299 81.4375 90.1357 81.2529 90.1357 81.0654C90.1357 80.6494 90.1035 80.2744 90.0391 79.9404C89.9746 79.6006 89.8896 79.3135 89.7842 79.0791C89.6787 78.8389 89.5557 78.6543 89.415 78.5254C89.2744 78.3965 89.1309 78.332 88.9844 78.332C88.7852 78.332 88.6152 78.4404 88.4746 78.6572C88.334 78.8682 88.2637 79.167 88.2637 79.5537ZM92.5615 80.9775L92.6494 80.793C92.7373 80.6172 92.8164 80.4355 92.8867 80.248C92.9629 80.0605 93.0273 79.8848 93.0801 79.7207C93.1328 79.5508 93.1738 79.4014 93.2031 79.2725C93.2324 79.1377 93.2529 79.0352 93.2646 78.9648C93.1123 78.9473 92.9658 78.9092 92.8252 78.8506C92.6846 78.792 92.5615 78.7129 92.4561 78.6133C92.3506 78.5137 92.2686 78.3965 92.21 78.2617C92.1455 78.127 92.1133 77.9746 92.1133 77.8047C92.1133 77.6699 92.1367 77.5498 92.1836 77.4443C92.2305 77.3389 92.2949 77.251 92.377 77.1807C92.4531 77.1104 92.541 77.0576 92.6406 77.0225C92.7344 76.9814 92.834 76.9609 92.9395 76.9609C93.0801 76.9609 93.2031 76.9902 93.3086 77.0488C93.4141 77.1074 93.502 77.1865 93.5723 77.2861C93.6426 77.3799 93.6953 77.4912 93.7305 77.6201C93.7656 77.7432 93.7832 77.8721 93.7832 78.0068C93.9473 78.0068 94.123 77.9834 94.3105 77.9365C94.5039 77.8896 94.6973 77.8398 94.8906 77.7871C95.084 77.7285 95.2744 77.6758 95.4619 77.6289C95.6494 77.582 95.8223 77.5586 95.9805 77.5586C96.1152 77.5586 96.2236 77.5879 96.3057 77.6465C96.3877 77.6992 96.4287 77.79 96.4287 77.9189C96.4287 78.0127 96.3994 78.168 96.3408 78.3848C96.2881 78.6016 96.2207 78.8535 96.1387 79.1406C96.0566 79.4277 95.9658 79.7412 95.8662 80.0811C95.7725 80.415 95.6846 80.7549 95.6025 81.1006C95.5205 81.4404 95.4502 81.7715 95.3916 82.0938C95.3389 82.416 95.3125 82.7031 95.3125 82.9551C95.3125 83.2715 95.3477 83.4854 95.418 83.5967C95.4883 83.708 95.6143 83.7637 95.7959 83.7637C95.8721 83.7637 95.9658 83.7314 96.0771 83.667C96.1943 83.5967 96.335 83.4648 96.499 83.2715C96.6631 83.0723 96.8564 82.791 97.0791 82.4277C97.3076 82.0586 97.5713 81.5752 97.8701 80.9775L97.958 80.793L98.3184 81.0654L98.2305 81.25C97.8789 81.9531 97.5654 82.5303 97.29 82.9814C97.0146 83.4326 96.7598 83.79 96.5254 84.0537C96.2969 84.3174 96.0801 84.502 95.875 84.6074C95.6699 84.707 95.4648 84.7568 95.2598 84.7568C94.9141 84.7568 94.6328 84.625 94.416 84.3613C94.1992 84.0977 94.0908 83.6904 94.0908 83.1396C94.0908 82.8408 94.1318 82.5303 94.2139 82.208C94.2959 81.8857 94.3984 81.5664 94.5215 81.25C94.6445 80.9277 94.7822 80.6113 94.9346 80.3008C95.0869 79.9902 95.2305 79.6973 95.3652 79.4219C95.5059 79.1406 95.6318 78.8799 95.7432 78.6396C95.8545 78.3994 95.9336 78.1885 95.9805 78.0068L95.9277 77.9541C95.834 77.9541 95.708 78.0039 95.5498 78.1035C95.3916 78.2031 95.2129 78.3174 95.0137 78.4463C94.8203 78.5693 94.6123 78.6865 94.3896 78.7979C94.167 78.9092 93.9414 78.9766 93.7129 79C93.7012 79.082 93.6748 79.2021 93.6338 79.3604C93.5986 79.5186 93.5488 79.6943 93.4844 79.8877C93.4199 80.0811 93.3467 80.2803 93.2646 80.4854C93.1826 80.6904 93.0977 80.8838 93.0098 81.0654L92.9219 81.25L92.5615 80.9775ZM92.9922 77.4531C92.9395 77.4531 92.8955 77.4707 92.8604 77.5059C92.8252 77.541 92.8076 77.582 92.8076 77.6289C92.8076 77.6992 92.8252 77.7607 92.8604 77.8135C92.8955 77.8604 92.9395 77.9014 92.9922 77.9365C93.0449 77.9658 93.0977 77.9893 93.1504 78.0068C93.209 78.0186 93.2588 78.0244 93.2998 78.0244C93.2998 77.8604 93.2734 77.7256 93.2207 77.6201C93.168 77.5088 93.0918 77.4531 92.9922 77.4531ZM100.41 88.0879C100.41 87.8301 100.457 87.5693 100.551 87.3057C100.65 87.042 100.785 86.7725 100.955 86.4971C101.125 86.2217 101.321 85.9346 101.544 85.6357C101.772 85.3428 102.019 85.0381 102.282 84.7217V83.0605C102.142 83.3359 101.983 83.5791 101.808 83.79C101.632 84.001 101.444 84.1797 101.245 84.3262C101.052 84.4668 100.85 84.5752 100.639 84.6514C100.434 84.7217 100.231 84.7568 100.032 84.7568C99.7568 84.7568 99.4902 84.6895 99.2324 84.5547C98.9805 84.4199 98.7549 84.2178 98.5557 83.9482C98.3564 83.6729 98.1982 83.3271 98.0811 82.9111C97.9639 82.4951 97.9053 82.0059 97.9053 81.4434C97.9053 80.9688 97.9609 80.5 98.0723 80.0371C98.1836 79.5742 98.3506 79.1611 98.5732 78.7979C98.7959 78.4287 99.0713 78.1299 99.3994 77.9014C99.7275 77.6729 100.111 77.5586 100.551 77.5586C100.896 77.5586 101.219 77.6289 101.518 77.7695C101.822 77.9102 102.077 78.1152 102.282 78.3848V78.2793C102.282 78.168 102.314 78.0684 102.379 77.9805C102.449 77.8867 102.534 77.8105 102.634 77.752C102.739 77.6875 102.848 77.6406 102.959 77.6113C103.076 77.5762 103.179 77.5586 103.267 77.5586C103.366 77.5586 103.437 77.5732 103.478 77.6025C103.519 77.626 103.539 77.6699 103.539 77.7344C103.539 77.8281 103.527 78.0391 103.504 78.3672C103.48 78.6953 103.469 79.1758 103.469 79.8086V83.623C103.615 83.4414 103.771 83.2393 103.935 83.0166C104.099 82.7939 104.263 82.5625 104.427 82.3223C104.591 82.0762 104.749 81.8242 104.901 81.5664C105.06 81.3086 105.206 81.0508 105.341 80.793L105.429 80.6172L105.789 80.8896L105.701 81.0654C105.561 81.3467 105.396 81.6396 105.209 81.9443C105.027 82.2432 104.834 82.5391 104.629 82.832C104.43 83.1191 104.228 83.3975 104.022 83.667C103.823 83.9307 103.639 84.168 103.469 84.3789V86.2861C103.469 86.8252 103.419 87.2822 103.319 87.6572C103.226 88.0381 103.094 88.3457 102.924 88.5801C102.76 88.8203 102.561 88.9932 102.326 89.0986C102.098 89.2041 101.849 89.2568 101.579 89.2568C101.245 89.2568 100.967 89.1514 100.744 88.9404C100.521 88.7354 100.41 88.4512 100.41 88.0879ZM100.568 83.8604C100.75 83.8604 100.929 83.8076 101.104 83.7021C101.286 83.5967 101.453 83.4619 101.605 83.2979C101.758 83.1338 101.893 82.9551 102.01 82.7617C102.133 82.5625 102.224 82.3691 102.282 82.1816V79.7031C102.282 79.4395 102.241 79.2021 102.159 78.9912C102.077 78.7744 101.969 78.5928 101.834 78.4463C101.699 78.2939 101.544 78.1768 101.368 78.0947C101.198 78.0127 101.022 77.9717 100.841 77.9717C100.56 77.9717 100.313 78.0566 100.103 78.2266C99.8916 78.3906 99.7158 78.6104 99.5752 78.8857C99.4346 79.1553 99.3291 79.4658 99.2588 79.8174C99.1943 80.1689 99.1621 80.5264 99.1621 80.8896C99.1621 81.3408 99.1885 81.748 99.2412 82.1113C99.2998 82.4746 99.3877 82.7881 99.5049 83.0518C99.6221 83.3096 99.7686 83.5088 99.9443 83.6494C100.12 83.79 100.328 83.8604 100.568 83.8604ZM101.482 88.7207C101.576 88.7207 101.67 88.7002 101.764 88.6592C101.863 88.624 101.951 88.5391 102.027 88.4043C102.104 88.2695 102.165 88.0703 102.212 87.8066C102.259 87.543 102.282 87.1855 102.282 86.7344V85.4248C101.878 85.9111 101.547 86.3711 101.289 86.8047C101.037 87.2441 100.911 87.6543 100.911 88.0352C100.911 88.2168 100.961 88.375 101.061 88.5098C101.16 88.6504 101.301 88.7207 101.482 88.7207ZM108.021 83.7637C108.227 83.7637 108.435 83.7109 108.646 83.6055C108.862 83.5 109.079 83.3359 109.296 83.1133C109.519 82.8906 109.747 82.6035 109.981 82.252C110.216 81.8945 110.456 81.4697 110.702 80.9775L110.79 80.793L111.15 81.0654L111.062 81.25C110.746 81.877 110.43 82.4131 110.113 82.8584C109.803 83.3037 109.495 83.667 109.19 83.9482C108.892 84.2295 108.596 84.4346 108.303 84.5635C108.01 84.6924 107.729 84.7568 107.459 84.7568C107.078 84.7568 106.738 84.6777 106.439 84.5195C106.141 84.3613 105.889 84.1475 105.684 83.8779C105.479 83.6025 105.323 83.2861 105.218 82.9287C105.106 82.5654 105.051 82.1846 105.051 81.7861C105.051 81.1533 105.139 80.5791 105.314 80.0635C105.484 79.542 105.713 79.0967 106 78.7275C106.293 78.3584 106.624 78.0713 106.993 77.8662C107.362 77.6611 107.746 77.5586 108.145 77.5586C108.549 77.5586 108.856 77.6611 109.067 77.8662C109.284 78.0713 109.393 78.3291 109.393 78.6396C109.393 78.9385 109.308 79.2197 109.138 79.4834C108.968 79.7412 108.736 79.9961 108.443 80.248C108.156 80.4941 107.822 80.7402 107.441 80.9863C107.061 81.2266 106.659 81.4756 106.237 81.7334C106.278 82.0381 106.349 82.3164 106.448 82.5684C106.548 82.8145 106.674 83.0283 106.826 83.21C106.979 83.3857 107.154 83.5234 107.354 83.623C107.553 83.7168 107.775 83.7637 108.021 83.7637ZM108.294 78.9033C108.294 78.6689 108.229 78.4844 108.101 78.3496C107.978 78.2148 107.825 78.1475 107.644 78.1475C107.491 78.1475 107.33 78.2031 107.16 78.3145C106.99 78.4199 106.835 78.5928 106.694 78.833C106.554 79.0674 106.437 79.3691 106.343 79.7383C106.249 80.1074 106.202 80.5557 106.202 81.083V81.2852C106.401 81.1797 106.621 81.042 106.861 80.8721C107.107 80.6963 107.336 80.5029 107.547 80.292C107.758 80.0811 107.934 79.8584 108.074 79.624C108.221 79.3838 108.294 79.1436 108.294 78.9033ZM126.188 79.8438C126.411 79.8438 126.593 79.7822 126.733 79.6592C126.874 79.5361 126.944 79.3984 126.944 79.2461C126.944 79.1699 126.921 79.0938 126.874 79.0176C126.833 78.9414 126.766 78.874 126.672 78.8154C126.584 78.7568 126.464 78.71 126.312 78.6748C126.165 78.6396 125.986 78.6221 125.775 78.6221C125.5 78.6221 125.233 78.6543 124.976 78.7188C124.718 78.7832 124.457 78.8652 124.193 78.9648C124.439 79.2109 124.636 79.498 124.782 79.8262C124.929 80.1484 125.002 80.5205 125.002 80.9424C125.002 81.5576 124.879 82.1025 124.633 82.5771C124.393 83.0518 124.067 83.4502 123.657 83.7725C123.253 84.0947 122.784 84.3408 122.251 84.5107C121.718 84.6748 121.164 84.7568 120.59 84.7568C120.016 84.7568 119.456 84.6719 118.911 84.502C118.366 84.332 117.877 84.0771 117.443 83.7373C117.016 83.3975 116.67 82.9697 116.406 82.4541C116.148 81.9385 116.02 81.3379 116.02 80.6523C116.02 80.0195 116.119 79.4658 116.318 78.9912C116.523 78.5107 116.784 78.1006 117.101 77.7607C117.423 77.415 117.777 77.1309 118.164 76.9082C118.551 76.6855 118.929 76.5127 119.298 76.3896C119.069 76.2725 118.844 76.1289 118.621 75.959C118.404 75.7891 118.211 75.5986 118.041 75.3877C117.871 75.1768 117.733 74.9453 117.628 74.6934C117.528 74.4355 117.479 74.1602 117.479 73.8672C117.479 73.457 117.566 73.085 117.742 72.751C117.918 72.417 118.146 72.1328 118.428 71.8984C118.715 71.6641 119.04 71.4854 119.403 71.3623C119.767 71.2334 120.139 71.1689 120.52 71.1689C120.977 71.1689 121.369 71.2217 121.697 71.3271C122.025 71.4268 122.292 71.5586 122.497 71.7227C122.702 71.8809 122.852 72.0625 122.945 72.2676C123.045 72.4727 123.095 72.6748 123.095 72.874C123.095 73.0439 123.062 73.208 122.998 73.3662C122.939 73.5244 122.852 73.665 122.734 73.7881C122.623 73.9053 122.485 73.999 122.321 74.0693C122.157 74.1396 121.976 74.1748 121.776 74.1748C121.624 74.1748 121.486 74.1484 121.363 74.0957C121.24 74.0371 121.132 73.9727 121.038 73.9023C120.944 73.832 120.868 73.7617 120.81 73.6914C120.751 73.6211 120.713 73.5713 120.695 73.542L120.985 73.3662C121.015 73.3955 121.056 73.4307 121.108 73.4717C121.167 73.5127 121.231 73.5537 121.302 73.5947C121.372 73.6299 121.445 73.6621 121.521 73.6914C121.604 73.7148 121.688 73.7266 121.776 73.7266C122.011 73.7266 122.198 73.6416 122.339 73.4717C122.479 73.3018 122.55 73.1025 122.55 72.874C122.55 72.7393 122.518 72.6045 122.453 72.4697C122.395 72.3291 122.301 72.2031 122.172 72.0918C122.043 71.9746 121.876 71.8809 121.671 71.8105C121.472 71.7402 121.231 71.7051 120.95 71.7051C120.581 71.7051 120.256 71.7725 119.975 71.9072C119.693 72.042 119.459 72.2236 119.271 72.4521C119.084 72.6748 118.94 72.9297 118.841 73.2168C118.747 73.498 118.7 73.7881 118.7 74.0869C118.7 74.3096 118.727 74.5264 118.779 74.7373C118.838 74.9482 118.92 75.1475 119.025 75.335C119.137 75.5166 119.274 75.6836 119.438 75.8359C119.608 75.9824 119.808 76.0996 120.036 76.1875C120.153 76.1582 120.265 76.1406 120.37 76.1348C120.476 76.123 120.572 76.1172 120.66 76.1172C120.812 76.1172 120.933 76.1406 121.021 76.1875C121.108 76.2285 121.152 76.29 121.152 76.3721C121.152 76.4951 121.103 76.5889 121.003 76.6533C120.903 76.7178 120.771 76.75 120.607 76.75C120.508 76.75 120.399 76.7412 120.282 76.7236C120.171 76.7061 120.051 76.6768 119.922 76.6357C119.518 76.7295 119.163 76.8936 118.858 77.1279C118.554 77.3564 118.299 77.6318 118.094 77.9541C117.889 78.2764 117.733 78.6309 117.628 79.0176C117.528 79.3984 117.479 79.7881 117.479 80.1865C117.479 80.667 117.552 81.1416 117.698 81.6104C117.851 82.0791 118.079 82.498 118.384 82.8672C118.688 83.2363 119.066 83.5352 119.518 83.7637C119.969 83.9922 120.499 84.1064 121.108 84.1064C121.536 84.1064 121.949 84.0391 122.348 83.9043C122.752 83.7695 123.106 83.5703 123.411 83.3066C123.722 83.043 123.971 82.7178 124.158 82.3311C124.346 81.9443 124.439 81.499 124.439 80.9951C124.439 80.5908 124.372 80.2363 124.237 79.9316C124.103 79.6211 123.924 79.3574 123.701 79.1406C123.461 79.2402 123.221 79.3398 122.98 79.4395C122.746 79.5391 122.503 79.6299 122.251 79.7119C122.005 79.7939 121.753 79.8613 121.495 79.9141C121.237 79.9609 120.971 79.9844 120.695 79.9844C120.484 79.9844 120.3 79.958 120.142 79.9053C119.989 79.8525 119.86 79.7852 119.755 79.7031C119.655 79.6152 119.579 79.5156 119.526 79.4043C119.479 79.293 119.456 79.1758 119.456 79.0527C119.456 78.8652 119.506 78.6982 119.605 78.5518C119.711 78.4053 119.852 78.2822 120.027 78.1826C120.203 78.0771 120.408 77.998 120.643 77.9453C120.883 77.8926 121.135 77.8662 121.398 77.8662C121.68 77.8662 121.97 77.8984 122.269 77.9629C122.573 78.0215 122.872 78.1152 123.165 78.2441C123.534 78.0625 123.924 77.9014 124.334 77.7607C124.744 77.6143 125.189 77.541 125.67 77.541C125.992 77.541 126.271 77.585 126.505 77.6729C126.739 77.7549 126.933 77.8633 127.085 77.998C127.243 78.1328 127.357 78.2852 127.428 78.4551C127.504 78.625 127.542 78.7949 127.542 78.9648C127.542 79.123 127.513 79.2754 127.454 79.4219C127.396 79.5684 127.308 79.7002 127.19 79.8174C127.079 79.9346 126.941 80.0283 126.777 80.0986C126.613 80.1689 126.429 80.2041 126.224 80.2041L126.188 79.8438ZM121.398 78.2793C121.064 78.2793 120.786 78.3262 120.563 78.4199C120.341 78.5078 120.229 78.6279 120.229 78.7803C120.229 78.874 120.282 78.9531 120.388 79.0176C120.493 79.0762 120.663 79.1055 120.897 79.1055C121.167 79.1055 121.445 79.0469 121.732 78.9297C122.025 78.8125 122.336 78.6719 122.664 78.5078C122.441 78.4258 122.222 78.3672 122.005 78.332C121.788 78.2969 121.586 78.2793 121.398 78.2793ZM88.2109 100.077C88.2109 101.132 88.3311 102.052 88.5713 102.837C88.8115 103.622 89.1279 104.275 89.5205 104.797C89.9189 105.318 90.3701 105.711 90.874 105.975C91.3838 106.232 91.9053 106.361 92.4385 106.361C92.8193 106.361 93.1943 106.291 93.5635 106.15C93.9385 106.01 94.3018 105.799 94.6533 105.518C95.0049 105.236 95.3418 104.885 95.6641 104.463C95.9922 104.041 96.2969 103.546 96.5781 102.978L96.6748 102.793L97.0352 103.065L96.9385 103.25C96.6162 103.9 96.2588 104.472 95.8662 104.964C95.4795 105.456 95.0664 105.869 94.627 106.203C94.1875 106.531 93.7305 106.78 93.2559 106.95C92.7871 107.12 92.3066 107.205 91.8145 107.205C91.3926 107.205 90.9736 107.144 90.5576 107.021C90.1475 106.903 89.7549 106.725 89.3799 106.484C89.0107 106.238 88.665 105.931 88.3428 105.562C88.0264 105.192 87.751 104.762 87.5166 104.27C87.2822 103.771 87.0977 103.212 86.9629 102.591C86.834 101.964 86.7695 101.275 86.7695 100.525C86.7695 99.5352 86.8516 98.6387 87.0156 97.8359C87.1855 97.0273 87.4111 96.3096 87.6924 95.6826C87.9795 95.0498 88.3105 94.502 88.6855 94.0391C89.0664 93.5762 89.4648 93.1953 89.8809 92.8965C90.2969 92.5918 90.7217 92.3662 91.1553 92.2197C91.5889 92.0732 92.0049 92 92.4033 92C92.9248 92 93.4053 92.0908 93.8447 92.2725C94.2842 92.4482 94.6621 92.7002 94.9785 93.0283C95.2949 93.3506 95.541 93.7461 95.7168 94.2148C95.8984 94.6777 95.9893 95.1934 95.9893 95.7617C95.9893 96.3066 95.9043 96.8193 95.7344 97.2998C95.5703 97.7803 95.3477 98.2021 95.0664 98.5654C94.791 98.9229 94.4717 99.207 94.1084 99.418C93.751 99.6289 93.376 99.7344 92.9834 99.7344C92.7197 99.7344 92.4736 99.6875 92.2451 99.5938C92.0166 99.5 91.8174 99.3682 91.6475 99.1982C91.4775 99.0283 91.3428 98.8203 91.2432 98.5742C91.1436 98.3281 91.0938 98.0557 91.0938 97.7568C91.0938 97.4697 91.1377 97.1943 91.2256 96.9307C91.3135 96.6611 91.4248 96.415 91.5596 96.1924C91.6943 95.9639 91.8408 95.7646 91.999 95.5947C92.1631 95.4189 92.3213 95.2812 92.4736 95.1816L92.7109 95.4189C92.5879 95.5596 92.4707 95.7119 92.3594 95.876C92.2539 96.0342 92.1602 96.207 92.0781 96.3945C91.9961 96.5762 91.9316 96.7725 91.8848 96.9834C91.8379 97.1943 91.8145 97.4229 91.8145 97.6689C91.8145 97.9209 91.8438 98.1465 91.9023 98.3457C91.9668 98.5449 92.0518 98.7148 92.1572 98.8555C92.2686 98.9961 92.3945 99.1045 92.5352 99.1807C92.6758 99.251 92.8252 99.2861 92.9834 99.2861C93.2002 99.2861 93.417 99.207 93.6338 99.0488C93.8506 98.8848 94.0439 98.6475 94.2139 98.3369C94.3838 98.0205 94.5215 97.6338 94.627 97.1768C94.7324 96.7197 94.7852 96.1924 94.7852 95.5947C94.7852 95.0557 94.7236 94.5898 94.6006 94.1973C94.4834 93.7988 94.3193 93.4707 94.1084 93.2129C93.8975 92.9551 93.6484 92.7646 93.3613 92.6416C93.0742 92.5127 92.7666 92.4482 92.4385 92.4482C92.2041 92.4482 91.9375 92.501 91.6387 92.6064C91.3398 92.7061 91.0322 92.873 90.7158 93.1074C90.4053 93.3418 90.1006 93.6523 89.8018 94.0391C89.5029 94.4199 89.2334 94.8945 88.9932 95.4629C88.7588 96.0254 88.5684 96.6875 88.4219 97.4492C88.2812 98.2109 88.2109 99.0869 88.2109 100.077ZM102.001 104.577C102.001 104.911 102.03 105.192 102.089 105.421C102.147 105.649 102.25 105.764 102.396 105.764C102.484 105.764 102.578 105.723 102.678 105.641C102.783 105.553 102.903 105.412 103.038 105.219C103.173 105.025 103.325 104.776 103.495 104.472C103.671 104.161 103.87 103.783 104.093 103.338L104.356 102.793L104.717 103.065L104.453 103.61C104.207 104.103 103.976 104.545 103.759 104.938C103.548 105.324 103.346 105.652 103.152 105.922C102.959 106.191 102.769 106.399 102.581 106.546C102.399 106.687 102.218 106.757 102.036 106.757C101.843 106.757 101.679 106.704 101.544 106.599C101.415 106.493 101.307 106.35 101.219 106.168C101.131 105.98 101.063 105.767 101.017 105.526C100.97 105.28 100.938 105.02 100.92 104.744C100.779 105.025 100.624 105.289 100.454 105.535C100.284 105.775 100.105 105.986 99.918 106.168C99.7363 106.35 99.5459 106.493 99.3467 106.599C99.1475 106.704 98.9482 106.757 98.749 106.757C98.4561 106.757 98.1719 106.695 97.8965 106.572C97.6211 106.449 97.375 106.262 97.1582 106.01C96.9473 105.758 96.7773 105.441 96.6484 105.061C96.5195 104.674 96.4551 104.22 96.4551 103.698C96.4551 103.089 96.5342 102.532 96.6924 102.028C96.8506 101.519 97.0645 101.082 97.334 100.719C97.6035 100.35 97.9141 100.065 98.2656 99.8662C98.6172 99.6611 98.9863 99.5586 99.373 99.5586C99.6074 99.5586 99.8242 99.6113 100.023 99.7168C100.223 99.8223 100.396 99.9512 100.542 100.104C100.694 100.25 100.82 100.408 100.92 100.578C101.02 100.742 101.087 100.883 101.122 101L101.228 100.147C101.239 100.036 101.292 99.9424 101.386 99.8662C101.485 99.79 101.594 99.7314 101.711 99.6904C101.828 99.6436 101.942 99.6113 102.054 99.5938C102.165 99.5703 102.244 99.5586 102.291 99.5586C102.361 99.5586 102.408 99.5703 102.432 99.5938C102.455 99.6172 102.467 99.6641 102.467 99.7344C102.467 99.8223 102.44 100.001 102.388 100.271C102.341 100.534 102.288 100.874 102.229 101.29C102.177 101.7 102.124 102.184 102.071 102.74C102.024 103.297 102.001 103.909 102.001 104.577ZM101.034 102.257C101.034 101.987 100.993 101.724 100.911 101.466C100.829 101.202 100.718 100.971 100.577 100.771C100.437 100.566 100.272 100.402 100.085 100.279C99.9033 100.156 99.71 100.095 99.5049 100.095C99.2529 100.095 99.0156 100.168 98.793 100.314C98.5762 100.455 98.3857 100.657 98.2217 100.921C98.0635 101.179 97.9375 101.492 97.8438 101.861C97.75 102.225 97.7031 102.626 97.7031 103.065C97.7031 103.944 97.8408 104.615 98.1162 105.078C98.3916 105.535 98.7578 105.764 99.2148 105.764C99.4141 105.764 99.6191 105.685 99.8301 105.526C100.047 105.362 100.243 105.131 100.419 104.832C100.601 104.527 100.747 104.158 100.858 103.725C100.976 103.291 101.034 102.802 101.034 102.257ZM104.269 102.978L104.356 102.793C104.444 102.617 104.523 102.436 104.594 102.248C104.67 102.061 104.734 101.885 104.787 101.721C104.84 101.551 104.881 101.401 104.91 101.272C104.939 101.138 104.96 101.035 104.972 100.965C104.819 100.947 104.673 100.909 104.532 100.851C104.392 100.792 104.269 100.713 104.163 100.613C104.058 100.514 103.976 100.396 103.917 100.262C103.853 100.127 103.82 99.9746 103.82 99.8047C103.82 99.6699 103.844 99.5498 103.891 99.4443C103.938 99.3389 104.002 99.251 104.084 99.1807C104.16 99.1104 104.248 99.0576 104.348 99.0225C104.441 98.9814 104.541 98.9609 104.646 98.9609C104.787 98.9609 104.91 98.9902 105.016 99.0488C105.121 99.1074 105.209 99.1865 105.279 99.2861C105.35 99.3799 105.402 99.4912 105.438 99.6201C105.473 99.7432 105.49 99.8721 105.49 100.007C105.654 100.007 105.83 99.9834 106.018 99.9365C106.211 99.8896 106.404 99.8398 106.598 99.7871C106.791 99.7285 106.981 99.6758 107.169 99.6289C107.356 99.582 107.529 99.5586 107.688 99.5586C107.822 99.5586 107.931 99.5879 108.013 99.6465C108.095 99.6992 108.136 99.79 108.136 99.9189C108.136 100.013 108.106 100.168 108.048 100.385C107.995 100.602 107.928 100.854 107.846 101.141C107.764 101.428 107.673 101.741 107.573 102.081C107.479 102.415 107.392 102.755 107.31 103.101C107.228 103.44 107.157 103.771 107.099 104.094C107.046 104.416 107.02 104.703 107.02 104.955C107.02 105.271 107.055 105.485 107.125 105.597C107.195 105.708 107.321 105.764 107.503 105.764C107.579 105.764 107.673 105.731 107.784 105.667C107.901 105.597 108.042 105.465 108.206 105.271C108.37 105.072 108.563 104.791 108.786 104.428C109.015 104.059 109.278 103.575 109.577 102.978L109.665 102.793L110.025 103.065L109.938 103.25C109.586 103.953 109.272 104.53 108.997 104.981C108.722 105.433 108.467 105.79 108.232 106.054C108.004 106.317 107.787 106.502 107.582 106.607C107.377 106.707 107.172 106.757 106.967 106.757C106.621 106.757 106.34 106.625 106.123 106.361C105.906 106.098 105.798 105.69 105.798 105.14C105.798 104.841 105.839 104.53 105.921 104.208C106.003 103.886 106.105 103.566 106.229 103.25C106.352 102.928 106.489 102.611 106.642 102.301C106.794 101.99 106.938 101.697 107.072 101.422C107.213 101.141 107.339 100.88 107.45 100.64C107.562 100.399 107.641 100.188 107.688 100.007L107.635 99.9541C107.541 99.9541 107.415 100.004 107.257 100.104C107.099 100.203 106.92 100.317 106.721 100.446C106.527 100.569 106.319 100.687 106.097 100.798C105.874 100.909 105.648 100.977 105.42 101C105.408 101.082 105.382 101.202 105.341 101.36C105.306 101.519 105.256 101.694 105.191 101.888C105.127 102.081 105.054 102.28 104.972 102.485C104.89 102.69 104.805 102.884 104.717 103.065L104.629 103.25L104.269 102.978ZM104.699 99.4531C104.646 99.4531 104.603 99.4707 104.567 99.5059C104.532 99.541 104.515 99.582 104.515 99.6289C104.515 99.6992 104.532 99.7607 104.567 99.8135C104.603 99.8604 104.646 99.9014 104.699 99.9365C104.752 99.9658 104.805 99.9893 104.857 100.007C104.916 100.019 104.966 100.024 105.007 100.024C105.007 99.8604 104.98 99.7256 104.928 99.6201C104.875 99.5088 104.799 99.4531 104.699 99.4531ZM112.53 100.183C112.36 100.183 112.196 100.244 112.038 100.367C111.886 100.484 111.739 100.648 111.599 100.859C111.458 101.064 111.32 101.308 111.186 101.589C111.057 101.864 110.928 102.16 110.799 102.477V102.582C110.781 103.098 110.764 103.646 110.746 104.226C110.734 104.806 110.729 105.438 110.729 106.124C110.729 106.241 110.688 106.341 110.605 106.423C110.529 106.499 110.438 106.563 110.333 106.616C110.228 106.663 110.119 106.698 110.008 106.722C109.896 106.745 109.806 106.757 109.735 106.757C109.647 106.757 109.565 106.73 109.489 106.678C109.413 106.625 109.375 106.508 109.375 106.326C109.375 106.238 109.384 106.13 109.401 106.001C109.419 105.866 109.442 105.723 109.472 105.57C109.495 105.418 109.524 105.263 109.56 105.104C109.589 104.94 109.618 104.788 109.647 104.647C109.647 104.149 109.647 103.701 109.647 103.303C109.642 102.904 109.639 102.55 109.639 102.239C109.639 101.929 109.639 101.656 109.639 101.422C109.633 101.188 109.63 100.985 109.63 100.815C109.63 100.534 109.636 100.329 109.647 100.2C109.653 100.065 109.665 99.9717 109.683 99.9189C109.712 99.8369 109.765 99.7725 109.841 99.7256C109.923 99.6787 110.008 99.6436 110.096 99.6201C110.184 99.5908 110.271 99.5732 110.359 99.5674C110.447 99.5615 110.515 99.5586 110.562 99.5586C110.673 99.5586 110.746 99.5908 110.781 99.6553C110.816 99.7197 110.834 99.8193 110.834 99.9541C110.834 100.259 110.834 100.534 110.834 100.78C110.834 101.026 110.828 101.272 110.816 101.519C110.928 101.255 111.057 101.006 111.203 100.771C111.355 100.531 111.522 100.323 111.704 100.147C111.886 99.9658 112.076 99.8223 112.275 99.7168C112.48 99.6113 112.691 99.5586 112.908 99.5586C113.172 99.5586 113.389 99.6143 113.559 99.7256C113.734 99.8311 113.872 99.9805 113.972 100.174C114.077 100.367 114.153 100.596 114.2 100.859C114.253 101.117 114.288 101.398 114.306 101.703C114.47 101.404 114.646 101.126 114.833 100.868C115.026 100.604 115.229 100.376 115.439 100.183C115.656 99.9893 115.882 99.8369 116.116 99.7256C116.356 99.6143 116.605 99.5586 116.863 99.5586C117.309 99.5586 117.634 99.6992 117.839 99.9805C118.044 100.256 118.146 100.631 118.146 101.105C118.146 101.404 118.123 101.738 118.076 102.107C118.029 102.477 117.979 102.852 117.927 103.232C117.874 103.607 117.824 103.977 117.777 104.34C117.73 104.703 117.707 105.034 117.707 105.333C117.707 105.696 117.798 105.878 117.979 105.878C118.073 105.878 118.176 105.822 118.287 105.711C118.398 105.594 118.524 105.418 118.665 105.184C118.812 104.943 118.979 104.642 119.166 104.278C119.359 103.915 119.582 103.481 119.834 102.978L119.922 102.793L120.282 103.065L120.194 103.25C119.849 103.941 119.553 104.513 119.307 104.964C119.066 105.415 118.85 105.775 118.656 106.045C118.463 106.309 118.278 106.493 118.103 106.599C117.933 106.704 117.742 106.757 117.531 106.757C117.408 106.757 117.288 106.739 117.171 106.704C117.054 106.669 116.951 106.607 116.863 106.52C116.775 106.432 116.705 106.314 116.652 106.168C116.6 106.016 116.573 105.822 116.573 105.588C116.573 105.236 116.597 104.841 116.644 104.401C116.69 103.962 116.743 103.522 116.802 103.083C116.86 102.644 116.913 102.23 116.96 101.844C117.007 101.451 117.03 101.132 117.03 100.886C117.03 100.669 116.983 100.496 116.89 100.367C116.796 100.232 116.655 100.165 116.468 100.165C116.28 100.165 116.084 100.238 115.879 100.385C115.68 100.531 115.483 100.722 115.29 100.956C115.103 101.185 114.924 101.442 114.754 101.729C114.59 102.017 114.446 102.301 114.323 102.582C114.323 103.197 114.317 103.736 114.306 104.199C114.294 104.656 114.276 105.043 114.253 105.359C114.235 105.676 114.209 105.928 114.174 106.115C114.139 106.297 114.101 106.42 114.06 106.484C114.03 106.525 113.98 106.563 113.91 106.599C113.84 106.634 113.761 106.663 113.673 106.687C113.591 106.71 113.509 106.728 113.427 106.739C113.351 106.751 113.292 106.757 113.251 106.757C113.157 106.757 113.075 106.73 113.005 106.678C112.94 106.619 112.908 106.508 112.908 106.344C112.908 106.268 112.914 106.165 112.926 106.036C112.943 105.907 112.964 105.764 112.987 105.605C113.011 105.447 113.037 105.277 113.066 105.096C113.096 104.914 113.125 104.729 113.154 104.542C113.16 104.366 113.166 104.17 113.172 103.953C113.178 103.736 113.184 103.522 113.189 103.312C113.195 103.095 113.198 102.89 113.198 102.696C113.204 102.497 113.207 102.327 113.207 102.187C113.207 101.888 113.198 101.615 113.181 101.369C113.163 101.123 113.128 100.912 113.075 100.736C113.028 100.561 112.961 100.426 112.873 100.332C112.785 100.232 112.671 100.183 112.53 100.183ZM122.523 105.764C122.729 105.764 122.937 105.711 123.147 105.605C123.364 105.5 123.581 105.336 123.798 105.113C124.021 104.891 124.249 104.604 124.483 104.252C124.718 103.895 124.958 103.47 125.204 102.978L125.292 102.793L125.652 103.065L125.564 103.25C125.248 103.877 124.932 104.413 124.615 104.858C124.305 105.304 123.997 105.667 123.692 105.948C123.394 106.229 123.098 106.435 122.805 106.563C122.512 106.692 122.23 106.757 121.961 106.757C121.58 106.757 121.24 106.678 120.941 106.52C120.643 106.361 120.391 106.147 120.186 105.878C119.98 105.603 119.825 105.286 119.72 104.929C119.608 104.565 119.553 104.185 119.553 103.786C119.553 103.153 119.641 102.579 119.816 102.063C119.986 101.542 120.215 101.097 120.502 100.728C120.795 100.358 121.126 100.071 121.495 99.8662C121.864 99.6611 122.248 99.5586 122.646 99.5586C123.051 99.5586 123.358 99.6611 123.569 99.8662C123.786 100.071 123.895 100.329 123.895 100.64C123.895 100.938 123.81 101.22 123.64 101.483C123.47 101.741 123.238 101.996 122.945 102.248C122.658 102.494 122.324 102.74 121.943 102.986C121.562 103.227 121.161 103.476 120.739 103.733C120.78 104.038 120.851 104.316 120.95 104.568C121.05 104.814 121.176 105.028 121.328 105.21C121.48 105.386 121.656 105.523 121.855 105.623C122.055 105.717 122.277 105.764 122.523 105.764ZM122.796 100.903C122.796 100.669 122.731 100.484 122.603 100.35C122.479 100.215 122.327 100.147 122.146 100.147C121.993 100.147 121.832 100.203 121.662 100.314C121.492 100.42 121.337 100.593 121.196 100.833C121.056 101.067 120.938 101.369 120.845 101.738C120.751 102.107 120.704 102.556 120.704 103.083V103.285C120.903 103.18 121.123 103.042 121.363 102.872C121.609 102.696 121.838 102.503 122.049 102.292C122.26 102.081 122.436 101.858 122.576 101.624C122.723 101.384 122.796 101.144 122.796 100.903ZM128.676 100.165C128.512 100.165 128.327 100.238 128.122 100.385C127.923 100.531 127.721 100.722 127.516 100.956C127.311 101.185 127.111 101.442 126.918 101.729C126.73 102.017 126.566 102.301 126.426 102.582C126.408 103.098 126.391 103.66 126.373 104.27C126.361 104.879 126.355 105.529 126.355 106.221C126.355 106.309 126.314 106.388 126.232 106.458C126.156 106.522 126.065 106.578 125.96 106.625C125.854 106.666 125.746 106.698 125.635 106.722C125.523 106.745 125.433 106.757 125.362 106.757C125.274 106.757 125.192 106.73 125.116 106.678C125.04 106.625 125.002 106.508 125.002 106.326C125.002 106.238 125.011 106.13 125.028 106.001C125.046 105.866 125.069 105.723 125.099 105.57C125.122 105.418 125.151 105.263 125.187 105.104C125.216 104.94 125.245 104.788 125.274 104.647V100.35C125.274 100.232 125.277 100.142 125.283 100.077C125.283 100.007 125.292 99.9541 125.31 99.9189C125.345 99.8369 125.406 99.7725 125.494 99.7256C125.582 99.6787 125.676 99.6436 125.775 99.6201C125.875 99.5908 125.972 99.5732 126.065 99.5674C126.159 99.5615 126.232 99.5586 126.285 99.5586C126.385 99.5586 126.452 99.585 126.487 99.6377C126.528 99.6904 126.549 99.7842 126.549 99.9189C126.549 99.9014 126.534 100.045 126.505 100.35C126.481 100.654 126.461 101.091 126.443 101.659C126.619 101.384 126.81 101.12 127.015 100.868C127.22 100.616 127.434 100.394 127.656 100.2C127.879 100.007 128.107 99.8516 128.342 99.7344C128.582 99.6172 128.825 99.5586 129.071 99.5586C129.511 99.5586 129.833 99.6992 130.038 99.9805C130.243 100.256 130.346 100.631 130.346 101.105C130.346 101.404 130.325 101.738 130.284 102.107C130.249 102.471 130.205 102.843 130.152 103.224C130.105 103.599 130.062 103.968 130.021 104.331C129.985 104.688 129.968 105.017 129.968 105.315C129.968 105.702 130.088 105.896 130.328 105.896C130.404 105.896 130.492 105.857 130.592 105.781C130.697 105.699 130.826 105.55 130.979 105.333C131.137 105.116 131.324 104.82 131.541 104.445C131.758 104.064 132.016 103.575 132.314 102.978L132.402 102.793L132.763 103.065L132.675 103.25C132.323 103.953 132.01 104.53 131.734 104.981C131.465 105.433 131.219 105.79 130.996 106.054C130.773 106.317 130.565 106.502 130.372 106.607C130.179 106.707 129.985 106.757 129.792 106.757C129.669 106.757 129.546 106.739 129.423 106.704C129.3 106.669 129.191 106.607 129.098 106.52C129.004 106.432 128.928 106.314 128.869 106.168C128.811 106.016 128.781 105.822 128.781 105.588C128.781 105.236 128.805 104.841 128.852 104.401C128.898 103.962 128.951 103.522 129.01 103.083C129.068 102.644 129.121 102.23 129.168 101.844C129.215 101.451 129.238 101.132 129.238 100.886C129.238 100.669 129.191 100.496 129.098 100.367C129.004 100.232 128.863 100.165 128.676 100.165Z" fill="white"/>
</g>
<defs>
<filter id="filter0_d_47_2" x="0" y="0" width="202.763" height="177.205" filterUnits="userSpaceOnUse" color-interpolation-filters="sRGB">
<feFlood flood-opacity="0" result="BackgroundImageFix"/>
<feColorMatrix in="SourceAlpha" type="matrix" values="0 0 0 0 0 0 0 0 0 0 0 0 0 0 0 0 0 0 127 0" result="hardAlpha"/>
<feOffset/>
<feGaussianBlur stdDeviation="35"/>
<feComposite in2="hardAlpha" operator="out"/>
<feColorMatrix type="matrix" values="0 0 0 0 0 0 0 0 0 0 0 0 0 0 0 0 0 0 1 0"/>
<feBlend mode="normal" in2="BackgroundImageFix" result="effect1_dropShadow_47_2"/>
<feBlend mode="normal" in="SourceGraphic" in2="effect1_dropShadow_47_2" result="shape"/>
</filter>
</defs>
</svg>
