<svg width="82" height="48" viewBox="0 0 82 48" fill="none" xmlns="http://www.w3.org/2000/svg">
<rect width="82" height="48" fill="white"/>
<g filter="url(#filter0_d_49_4)">
<path d="M20.1182 16.4932C19.9951 16.7334 19.8516 16.9619 19.6875 17.1787C19.5293 17.3896 19.3623 17.5859 19.1865 17.7676C19.0107 17.9434 18.835 18.1074 18.6592 18.2598C18.4834 18.4062 18.3223 18.5352 18.1758 18.6465V19.6572C18.1758 20.4248 18.1143 21.1074 17.9912 21.7051C17.874 22.3027 17.7012 22.8096 17.4727 23.2256C17.25 23.6416 16.9805 23.958 16.6641 24.1748C16.3535 24.3916 16.0049 24.5 15.6182 24.5C15.4072 24.5 15.2139 24.4561 15.0381 24.3682C14.8623 24.2861 14.71 24.1719 14.5811 24.0254C14.458 23.8789 14.3613 23.7061 14.291 23.5068C14.2207 23.3135 14.1855 23.1055 14.1855 22.8828C14.1855 22.4551 14.2559 22.0596 14.3965 21.6963C14.543 21.3389 14.7393 20.999 14.9854 20.6768C15.2314 20.3604 15.5156 20.0586 15.8379 19.7715C16.1602 19.4785 16.5029 19.1885 16.8662 18.9014C16.8721 18.5791 16.8809 18.2598 16.8926 17.9434C16.9102 17.627 16.9248 17.3281 16.9365 17.0469C16.9541 16.7656 16.9688 16.5107 16.9805 16.2822C16.998 16.0537 17.0127 15.8662 17.0244 15.7197C16.8252 16.124 16.5996 16.5225 16.3477 16.915C16.1016 17.3018 15.8379 17.6709 15.5566 18.0225C15.2754 18.374 14.9795 18.6992 14.6689 18.998C14.3643 19.291 14.0566 19.5459 13.7461 19.7627C13.4355 19.9795 13.125 20.1465 12.8145 20.2637C12.5098 20.3867 12.2168 20.4482 11.9355 20.4482C11.6191 20.4482 11.3174 20.3838 11.0303 20.2549C10.749 20.1318 10.5 19.9355 10.2832 19.666C10.0723 19.3965 9.90527 19.0508 9.78223 18.6289C9.65332 18.207 9.58887 17.7031 9.58887 17.1172C9.58887 16.4609 9.66211 15.7871 9.80859 15.0957C9.95508 14.4043 10.1572 13.7188 10.415 13.0391C10.6729 12.3594 10.9805 11.6943 11.3379 11.0439C11.6953 10.3936 12.085 9.78125 12.5068 9.20703C12.9287 8.62695 13.377 8.09668 13.8516 7.61621C14.3262 7.12988 14.8096 6.71094 15.3018 6.35938C15.7939 6.00781 16.2861 5.73535 16.7783 5.54199C17.2764 5.34277 17.7598 5.24316 18.2285 5.24316C18.7207 5.24316 19.1133 5.36914 19.4062 5.62109C19.7051 5.86719 19.8545 6.21875 19.8545 6.67578C19.8545 6.92188 19.8018 7.16211 19.6963 7.39648C19.5967 7.625 19.459 7.84766 19.2832 8.06445C19.1133 8.27539 18.9199 8.47754 18.7031 8.6709C18.4863 8.8584 18.2637 9.03125 18.0352 9.18945C17.8125 9.34766 17.5898 9.48828 17.3672 9.61133C17.1504 9.73438 16.957 9.83691 16.7871 9.91895L16.5234 9.55859C16.7461 9.44727 16.9893 9.28906 17.2529 9.08398C17.5166 8.87891 17.7627 8.64746 17.9912 8.38965C18.2197 8.13184 18.4102 7.85352 18.5625 7.55469C18.7148 7.25586 18.791 6.95703 18.791 6.6582C18.791 6.40625 18.7236 6.19824 18.5889 6.03418C18.46 5.86426 18.252 5.7793 17.9648 5.7793C17.5195 5.7793 17.042 5.91699 16.5322 6.19238C16.0283 6.46777 15.5244 6.85156 15.0205 7.34375C14.5225 7.83594 14.0449 8.4248 13.5879 9.11035C13.1309 9.79004 12.7266 10.5371 12.375 11.3516C12.0234 12.166 11.7422 13.0303 11.5312 13.9443C11.3203 14.8584 11.2148 15.7959 11.2148 16.7568C11.2148 17.1787 11.2441 17.5566 11.3027 17.8906C11.3672 18.2246 11.4551 18.5088 11.5664 18.7432C11.6836 18.9717 11.8242 19.1504 11.9883 19.2793C12.1582 19.4023 12.3486 19.4639 12.5596 19.4639C12.8174 19.4639 13.0986 19.3848 13.4033 19.2266C13.708 19.0684 14.0127 18.8545 14.3174 18.585C14.6279 18.3154 14.9326 18.0049 15.2314 17.6533C15.5303 17.2959 15.8057 16.9209 16.0576 16.5283C16.3096 16.1357 16.5293 15.7373 16.7168 15.333C16.9043 14.9287 17.042 14.5449 17.1299 14.1816C17.165 13.7539 17.2002 13.3643 17.2354 13.0127C17.2705 12.6553 17.3027 12.3418 17.332 12.0723C17.3672 11.8027 17.3994 11.5859 17.4287 11.4219C17.458 11.252 17.4844 11.1406 17.5078 11.0879C17.5547 11 17.6221 10.9121 17.71 10.8242C17.7979 10.7363 17.8916 10.6602 17.9912 10.5957C18.0967 10.5254 18.1992 10.4697 18.2988 10.4287C18.3984 10.3877 18.4834 10.3672 18.5537 10.3672C18.6475 10.3672 18.709 10.4053 18.7383 10.4814C18.7734 10.5576 18.791 10.6396 18.791 10.7275C18.791 10.9854 18.7471 11.3281 18.6592 11.7559C18.5713 12.1836 18.46 12.6816 18.3252 13.25C18.2666 13.4961 18.2227 13.8213 18.1934 14.2256C18.1699 14.624 18.1523 15.0518 18.1406 15.5088C18.1348 15.96 18.1318 16.417 18.1318 16.8799C18.1318 17.3369 18.1289 17.7471 18.123 18.1104C18.5566 17.7939 18.9023 17.4688 19.1602 17.1348C19.4238 16.7949 19.623 16.4902 19.7578 16.2207L19.8545 16.0361L20.2148 16.3086L20.1182 16.4932ZM16.8486 19.5518C16.5732 19.7686 16.3213 19.9971 16.0928 20.2373C15.8643 20.4775 15.668 20.7354 15.5039 21.0107C15.3457 21.2861 15.2197 21.585 15.126 21.9072C15.0381 22.2354 14.9941 22.5898 14.9941 22.9707C14.9941 23.334 15.0527 23.6035 15.1699 23.7793C15.2871 23.9609 15.4365 24.0518 15.6182 24.0518C15.7998 24.0518 15.9639 23.9727 16.1104 23.8145C16.2627 23.6621 16.3916 23.4072 16.4971 23.0498C16.6084 22.6982 16.6934 22.2354 16.752 21.6611C16.8164 21.0869 16.8486 20.3838 16.8486 19.5518ZM22.4561 19.0068C22.6611 19.0068 22.8691 18.9541 23.0801 18.8486C23.2969 18.7432 23.5137 18.5791 23.7305 18.3564C23.9531 18.1338 24.1816 17.8467 24.416 17.4951C24.6504 17.1377 24.8906 16.7129 25.1367 16.2207L25.2246 16.0361L25.585 16.3086L25.4971 16.4932C25.1807 17.1201 24.8643 17.6562 24.5479 18.1016C24.2373 18.5469 23.9297 18.9102 23.625 19.1914C23.3262 19.4727 23.0303 19.6777 22.7373 19.8066C22.4443 19.9355 22.1631 20 21.8936 20C21.5127 20 21.1729 19.9209 20.874 19.7627C20.5752 19.6045 20.3232 19.3906 20.1182 19.1211C19.9131 18.8457 19.7578 18.5293 19.6523 18.1719C19.541 17.8086 19.4854 17.4277 19.4854 17.0293C19.4854 16.3965 19.5732 15.8223 19.749 15.3066C19.9189 14.7852 20.1475 14.3398 20.4346 13.9707C20.7275 13.6016 21.0586 13.3145 21.4277 13.1094C21.7969 12.9043 22.1807 12.8018 22.5791 12.8018C22.9834 12.8018 23.291 12.9043 23.502 13.1094C23.7188 13.3145 23.8271 13.5723 23.8271 13.8828C23.8271 14.1816 23.7422 14.4629 23.5723 14.7266C23.4023 14.9844 23.1709 15.2393 22.8779 15.4912C22.5908 15.7373 22.2568 15.9834 21.876 16.2295C21.4951 16.4697 21.0938 16.7188 20.6719 16.9766C20.7129 17.2812 20.7832 17.5596 20.8828 17.8115C20.9824 18.0576 21.1084 18.2715 21.2607 18.4531C21.4131 18.6289 21.5889 18.7666 21.7881 18.8662C21.9873 18.96 22.21 19.0068 22.4561 19.0068ZM22.7285 14.1465C22.7285 13.9121 22.6641 13.7275 22.5352 13.5928C22.4121 13.458 22.2598 13.3906 22.0781 13.3906C21.9258 13.3906 21.7646 13.4463 21.5947 13.5576C21.4248 13.6631 21.2695 13.8359 21.1289 14.0762C20.9883 14.3105 20.8711 14.6123 20.7773 14.9814C20.6836 15.3506 20.6367 15.7988 20.6367 16.3262V16.5283C20.8359 16.4229 21.0557 16.2852 21.2959 16.1152C21.542 15.9395 21.7705 15.7461 21.9814 15.5352C22.1924 15.3242 22.3682 15.1016 22.5088 14.8672C22.6553 14.627 22.7285 14.3867 22.7285 14.1465ZM32.5898 16.3086L32.4932 16.4932C32.2939 16.8916 32.0273 17.2109 31.6934 17.4512C31.3652 17.6855 31.0078 17.8379 30.6211 17.9082C30.5156 18.207 30.3779 18.4854 30.208 18.7432C30.0439 18.9951 29.8535 19.2148 29.6367 19.4023C29.4258 19.5898 29.1855 19.7363 28.916 19.8418C28.6523 19.9473 28.3652 20 28.0547 20C27.6035 20 27.1963 19.9062 26.833 19.7188C26.4756 19.5254 26.1709 19.2676 25.9189 18.9453C25.667 18.6172 25.4736 18.2363 25.3389 17.8027C25.2041 17.3633 25.1367 16.8945 25.1367 16.3965C25.1367 15.9629 25.1865 15.5703 25.2861 15.2188C25.3857 14.8613 25.5117 14.5449 25.6641 14.2695C25.8164 13.9883 25.9863 13.7451 26.1738 13.54C26.3613 13.3291 26.5459 13.1562 26.7275 13.0215C26.9092 12.8867 27.0732 12.7871 27.2197 12.7227C27.3721 12.6523 27.4863 12.6172 27.5625 12.6172L27.6768 12.9248C27.4365 13.1006 27.2227 13.3467 27.0352 13.6631C26.8711 13.9326 26.7217 14.29 26.5869 14.7354C26.458 15.1807 26.3936 15.7344 26.3936 16.3965C26.3936 16.8008 26.4316 17.1934 26.5078 17.5742C26.584 17.9551 26.6953 18.292 26.8418 18.585C26.9883 18.8779 27.167 19.1123 27.3779 19.2881C27.5947 19.4639 27.8379 19.5518 28.1074 19.5518C28.4766 19.5518 28.7812 19.4053 29.0215 19.1123C29.2676 18.8135 29.4492 18.4062 29.5664 17.8906C29.2617 17.8262 28.9717 17.7061 28.6963 17.5303C28.4209 17.3545 28.1777 17.1377 27.9668 16.8799C27.7559 16.6162 27.5859 16.3145 27.457 15.9746C27.334 15.6348 27.2725 15.2656 27.2725 14.8672C27.2725 14.5391 27.3135 14.252 27.3955 14.0059C27.4834 13.7539 27.5977 13.5459 27.7383 13.3818C27.8789 13.2119 28.04 13.0859 28.2217 13.0039C28.4092 12.916 28.6055 12.8721 28.8105 12.8721C29.0508 12.8721 29.2969 12.9424 29.5488 13.083C29.8008 13.2178 30.0293 13.4229 30.2344 13.6982C30.4395 13.9678 30.6064 14.3076 30.7354 14.7178C30.8643 15.1279 30.9287 15.6055 30.9287 16.1504C30.9287 16.3555 30.917 16.5576 30.8936 16.7568C30.8701 16.9561 30.835 17.1494 30.7881 17.3369C31.0693 17.2549 31.3242 17.123 31.5527 16.9414C31.7871 16.7598 31.9805 16.5195 32.1328 16.2207L32.2295 16.0361L32.5898 16.3086ZM27.8525 14.7969C27.8525 15.1426 27.8994 15.4619 27.9932 15.7549C28.0928 16.042 28.2246 16.2969 28.3887 16.5195C28.5527 16.7363 28.7432 16.918 28.96 17.0645C29.1768 17.2109 29.4082 17.3135 29.6543 17.3721C29.6836 17.208 29.7012 17.0381 29.707 16.8623C29.7188 16.6807 29.7246 16.4961 29.7246 16.3086C29.7246 15.8926 29.6924 15.5176 29.6279 15.1836C29.5635 14.8438 29.4785 14.5566 29.373 14.3223C29.2676 14.082 29.1445 13.8975 29.0039 13.7686C28.8633 13.6396 28.7197 13.5752 28.5732 13.5752C28.374 13.5752 28.2041 13.6836 28.0635 13.9004C27.9229 14.1113 27.8525 14.4102 27.8525 14.7969ZM32.1504 16.2207L32.2383 16.0361C32.3262 15.8604 32.4053 15.6787 32.4756 15.4912C32.5518 15.3037 32.6162 15.1279 32.6689 14.9639C32.7217 14.7939 32.7627 14.6445 32.792 14.5156C32.8213 14.3809 32.8418 14.2783 32.8535 14.208C32.7012 14.1904 32.5547 14.1523 32.4141 14.0938C32.2734 14.0352 32.1504 13.9561 32.0449 13.8564C31.9395 13.7568 31.8574 13.6396 31.7988 13.5049C31.7344 13.3701 31.7021 13.2178 31.7021 13.0479C31.7021 12.9131 31.7256 12.793 31.7725 12.6875C31.8193 12.582 31.8838 12.4941 31.9658 12.4238C32.042 12.3535 32.1299 12.3008 32.2295 12.2656C32.3232 12.2246 32.4229 12.2041 32.5283 12.2041C32.6689 12.2041 32.792 12.2334 32.8975 12.292C33.0029 12.3506 33.0908 12.4297 33.1611 12.5293C33.2314 12.623 33.2842 12.7344 33.3193 12.8633C33.3545 12.9863 33.3721 13.1152 33.3721 13.25C33.5361 13.25 33.7119 13.2266 33.8994 13.1797C34.0928 13.1328 34.2861 13.083 34.4795 13.0303C34.6729 12.9717 34.8633 12.9189 35.0508 12.8721C35.2383 12.8252 35.4111 12.8018 35.5693 12.8018C35.7041 12.8018 35.8125 12.8311 35.8945 12.8896C35.9766 12.9424 36.0176 13.0332 36.0176 13.1621C36.0176 13.2559 35.9883 13.4111 35.9297 13.6279C35.877 13.8447 35.8096 14.0967 35.7275 14.3838C35.6455 14.6709 35.5547 14.9844 35.4551 15.3242C35.3613 15.6582 35.2734 15.998 35.1914 16.3438C35.1094 16.6836 35.0391 17.0146 34.9805 17.3369C34.9277 17.6592 34.9014 17.9463 34.9014 18.1982C34.9014 18.5146 34.9365 18.7285 35.0068 18.8398C35.0771 18.9512 35.2031 19.0068 35.3848 19.0068C35.4609 19.0068 35.5547 18.9746 35.666 18.9102C35.7832 18.8398 35.9238 18.708 36.0879 18.5146C36.252 18.3154 36.4453 18.0342 36.668 17.6709C36.8965 17.3018 37.1602 16.8184 37.459 16.2207L37.5469 16.0361L37.9072 16.3086L37.8193 16.4932C37.4678 17.1963 37.1543 17.7734 36.8789 18.2246C36.6035 18.6758 36.3486 19.0332 36.1143 19.2969C35.8857 19.5605 35.6689 19.7451 35.4639 19.8506C35.2588 19.9502 35.0537 20 34.8486 20C34.5029 20 34.2217 19.8682 34.0049 19.6045C33.7881 19.3408 33.6797 18.9336 33.6797 18.3828C33.6797 18.084 33.7207 17.7734 33.8027 17.4512C33.8848 17.1289 33.9873 16.8096 34.1104 16.4932C34.2334 16.1709 34.3711 15.8545 34.5234 15.5439C34.6758 15.2334 34.8193 14.9404 34.9541 14.665C35.0947 14.3838 35.2207 14.123 35.332 13.8828C35.4434 13.6426 35.5225 13.4316 35.5693 13.25L35.5166 13.1973C35.4229 13.1973 35.2969 13.2471 35.1387 13.3467C34.9805 13.4463 34.8018 13.5605 34.6025 13.6895C34.4092 13.8125 34.2012 13.9297 33.9785 14.041C33.7559 14.1523 33.5303 14.2197 33.3018 14.2432C33.29 14.3252 33.2637 14.4453 33.2227 14.6035C33.1875 14.7617 33.1377 14.9375 33.0732 15.1309C33.0088 15.3242 32.9355 15.5234 32.8535 15.7285C32.7715 15.9336 32.6865 16.127 32.5986 16.3086L32.5107 16.4932L32.1504 16.2207ZM32.5811 12.6963C32.5283 12.6963 32.4844 12.7139 32.4492 12.749C32.4141 12.7842 32.3965 12.8252 32.3965 12.8721C32.3965 12.9424 32.4141 13.0039 32.4492 13.0566C32.4844 13.1035 32.5283 13.1445 32.5811 13.1797C32.6338 13.209 32.6865 13.2324 32.7393 13.25C32.7979 13.2617 32.8477 13.2676 32.8887 13.2676C32.8887 13.1035 32.8623 12.9688 32.8096 12.8633C32.7568 12.752 32.6807 12.6963 32.5811 12.6963ZM39.999 23.3311C39.999 23.0732 40.0459 22.8125 40.1396 22.5488C40.2393 22.2852 40.374 22.0156 40.5439 21.7402C40.7139 21.4648 40.9102 21.1777 41.1328 20.8789C41.3613 20.5859 41.6074 20.2812 41.8711 19.9648V18.3037C41.7305 18.5791 41.5723 18.8223 41.3965 19.0332C41.2207 19.2441 41.0332 19.4229 40.834 19.5693C40.6406 19.71 40.4385 19.8184 40.2275 19.8945C40.0225 19.9648 39.8203 20 39.6211 20C39.3457 20 39.0791 19.9326 38.8213 19.7979C38.5693 19.6631 38.3438 19.4609 38.1445 19.1914C37.9453 18.916 37.7871 18.5703 37.6699 18.1543C37.5527 17.7383 37.4941 17.249 37.4941 16.6865C37.4941 16.2119 37.5498 15.7432 37.6611 15.2803C37.7725 14.8174 37.9395 14.4043 38.1621 14.041C38.3848 13.6719 38.6602 13.373 38.9883 13.1445C39.3164 12.916 39.7002 12.8018 40.1396 12.8018C40.4854 12.8018 40.8076 12.8721 41.1064 13.0127C41.4111 13.1533 41.666 13.3584 41.8711 13.6279V13.5225C41.8711 13.4111 41.9033 13.3115 41.9678 13.2236C42.0381 13.1299 42.123 13.0537 42.2227 12.9951C42.3281 12.9307 42.4365 12.8838 42.5479 12.8545C42.665 12.8193 42.7676 12.8018 42.8555 12.8018C42.9551 12.8018 43.0254 12.8164 43.0664 12.8457C43.1074 12.8691 43.1279 12.9131 43.1279 12.9775C43.1279 13.0713 43.1162 13.2822 43.0928 13.6104C43.0693 13.9385 43.0576 14.4189 43.0576 15.0518V18.8662C43.2041 18.6846 43.3594 18.4824 43.5234 18.2598C43.6875 18.0371 43.8516 17.8057 44.0156 17.5654C44.1797 17.3193 44.3379 17.0674 44.4902 16.8096C44.6484 16.5518 44.7949 16.2939 44.9297 16.0361L45.0176 15.8604L45.3779 16.1328L45.29 16.3086C45.1494 16.5898 44.9854 16.8828 44.7979 17.1875C44.6162 17.4863 44.4229 17.7822 44.2178 18.0752C44.0186 18.3623 43.8164 18.6406 43.6113 18.9102C43.4121 19.1738 43.2275 19.4111 43.0576 19.6221V21.5293C43.0576 22.0684 43.0078 22.5254 42.9082 22.9004C42.8145 23.2812 42.6826 23.5889 42.5127 23.8232C42.3486 24.0635 42.1494 24.2363 41.915 24.3418C41.6865 24.4473 41.4375 24.5 41.168 24.5C40.834 24.5 40.5557 24.3945 40.333 24.1836C40.1104 23.9785 39.999 23.6943 39.999 23.3311ZM40.1572 19.1035C40.3389 19.1035 40.5176 19.0508 40.6934 18.9453C40.875 18.8398 41.042 18.7051 41.1943 18.541C41.3467 18.377 41.4814 18.1982 41.5986 18.0049C41.7217 17.8057 41.8125 17.6123 41.8711 17.4248V14.9463C41.8711 14.6826 41.8301 14.4453 41.748 14.2344C41.666 14.0176 41.5576 13.8359 41.4229 13.6895C41.2881 13.5371 41.1328 13.4199 40.957 13.3379C40.7871 13.2559 40.6113 13.2148 40.4297 13.2148C40.1484 13.2148 39.9023 13.2998 39.6914 13.4697C39.4805 13.6338 39.3047 13.8535 39.1641 14.1289C39.0234 14.3984 38.918 14.709 38.8477 15.0605C38.7832 15.4121 38.751 15.7695 38.751 16.1328C38.751 16.584 38.7773 16.9912 38.8301 17.3545C38.8887 17.7178 38.9766 18.0312 39.0938 18.2949C39.2109 18.5527 39.3574 18.752 39.5332 18.8926C39.709 19.0332 39.917 19.1035 40.1572 19.1035ZM41.0713 23.9639C41.165 23.9639 41.2588 23.9434 41.3525 23.9023C41.4521 23.8672 41.54 23.7822 41.6162 23.6475C41.6924 23.5127 41.7539 23.3135 41.8008 23.0498C41.8477 22.7861 41.8711 22.4287 41.8711 21.9775V20.668C41.4668 21.1543 41.1357 21.6143 40.8779 22.0479C40.626 22.4873 40.5 22.8975 40.5 23.2783C40.5 23.46 40.5498 23.6182 40.6494 23.7529C40.749 23.8936 40.8896 23.9639 41.0713 23.9639ZM47.6104 19.0068C47.8154 19.0068 48.0234 18.9541 48.2344 18.8486C48.4512 18.7432 48.668 18.5791 48.8848 18.3564C49.1074 18.1338 49.3359 17.8467 49.5703 17.4951C49.8047 17.1377 50.0449 16.7129 50.291 16.2207L50.3789 16.0361L50.7393 16.3086L50.6514 16.4932C50.335 17.1201 50.0186 17.6562 49.7021 18.1016C49.3916 18.5469 49.084 18.9102 48.7793 19.1914C48.4805 19.4727 48.1846 19.6777 47.8916 19.8066C47.5986 19.9355 47.3174 20 47.0479 20C46.667 20 46.3271 19.9209 46.0283 19.7627C45.7295 19.6045 45.4775 19.3906 45.2725 19.1211C45.0674 18.8457 44.9121 18.5293 44.8066 18.1719C44.6953 17.8086 44.6396 17.4277 44.6396 17.0293C44.6396 16.3965 44.7275 15.8223 44.9033 15.3066C45.0732 14.7852 45.3018 14.3398 45.5889 13.9707C45.8818 13.6016 46.2129 13.3145 46.582 13.1094C46.9512 12.9043 47.335 12.8018 47.7334 12.8018C48.1377 12.8018 48.4453 12.9043 48.6562 13.1094C48.873 13.3145 48.9814 13.5723 48.9814 13.8828C48.9814 14.1816 48.8965 14.4629 48.7266 14.7266C48.5566 14.9844 48.3252 15.2393 48.0322 15.4912C47.7451 15.7373 47.4111 15.9834 47.0303 16.2295C46.6494 16.4697 46.248 16.7188 45.8262 16.9766C45.8672 17.2812 45.9375 17.5596 46.0371 17.8115C46.1367 18.0576 46.2627 18.2715 46.415 18.4531C46.5674 18.6289 46.7432 18.7666 46.9424 18.8662C47.1416 18.96 47.3643 19.0068 47.6104 19.0068ZM47.8828 14.1465C47.8828 13.9121 47.8184 13.7275 47.6895 13.5928C47.5664 13.458 47.4141 13.3906 47.2324 13.3906C47.0801 13.3906 46.9189 13.4463 46.749 13.5576C46.5791 13.6631 46.4238 13.8359 46.2832 14.0762C46.1426 14.3105 46.0254 14.6123 45.9316 14.9814C45.8379 15.3506 45.791 15.7988 45.791 16.3262V16.5283C45.9902 16.4229 46.21 16.2852 46.4502 16.1152C46.6963 15.9395 46.9248 15.7461 47.1357 15.5352C47.3467 15.3242 47.5225 15.1016 47.6631 14.8672C47.8096 14.627 47.8828 14.3867 47.8828 14.1465ZM65.7773 15.0869C66 15.0869 66.1816 15.0254 66.3223 14.9023C66.4629 14.7793 66.5332 14.6416 66.5332 14.4893C66.5332 14.4131 66.5098 14.3369 66.4629 14.2607C66.4219 14.1846 66.3545 14.1172 66.2607 14.0586C66.1729 14 66.0527 13.9531 65.9004 13.918C65.7539 13.8828 65.5752 13.8652 65.3643 13.8652C65.0889 13.8652 64.8223 13.8975 64.5645 13.9619C64.3066 14.0264 64.0459 14.1084 63.7822 14.208C64.0283 14.4541 64.2246 14.7412 64.3711 15.0693C64.5176 15.3916 64.5908 15.7637 64.5908 16.1855C64.5908 16.8008 64.4678 17.3457 64.2217 17.8203C63.9814 18.2949 63.6562 18.6934 63.2461 19.0156C62.8418 19.3379 62.373 19.584 61.8398 19.7539C61.3066 19.918 60.7529 20 60.1787 20C59.6045 20 59.0449 19.915 58.5 19.7451C57.9551 19.5752 57.4658 19.3203 57.0322 18.9805C56.6045 18.6406 56.2588 18.2129 55.9951 17.6973C55.7373 17.1816 55.6084 16.5811 55.6084 15.8955C55.6084 15.2627 55.708 14.709 55.9072 14.2344C56.1123 13.7539 56.373 13.3438 56.6895 13.0039C57.0117 12.6582 57.3662 12.374 57.7529 12.1514C58.1396 11.9287 58.5176 11.7559 58.8867 11.6328C58.6582 11.5156 58.4326 11.3721 58.21 11.2021C57.9932 11.0322 57.7998 10.8418 57.6299 10.6309C57.46 10.4199 57.3223 10.1885 57.2168 9.93652C57.1172 9.67871 57.0674 9.40332 57.0674 9.11035C57.0674 8.7002 57.1553 8.32812 57.3311 7.99414C57.5068 7.66016 57.7354 7.37598 58.0166 7.1416C58.3037 6.90723 58.6289 6.72852 58.9922 6.60547C59.3555 6.47656 59.7275 6.41211 60.1084 6.41211C60.5654 6.41211 60.958 6.46484 61.2861 6.57031C61.6143 6.66992 61.8809 6.80176 62.0859 6.96582C62.291 7.12402 62.4404 7.30566 62.5342 7.51074C62.6338 7.71582 62.6836 7.91797 62.6836 8.11719C62.6836 8.28711 62.6514 8.45117 62.5869 8.60938C62.5283 8.76758 62.4404 8.9082 62.3232 9.03125C62.2119 9.14844 62.0742 9.24219 61.9102 9.3125C61.7461 9.38281 61.5645 9.41797 61.3652 9.41797C61.2129 9.41797 61.0752 9.3916 60.9521 9.33887C60.8291 9.28027 60.7207 9.21582 60.627 9.14551C60.5332 9.0752 60.457 9.00488 60.3984 8.93457C60.3398 8.86426 60.3018 8.81445 60.2842 8.78516L60.5742 8.60938C60.6035 8.63867 60.6445 8.67383 60.6973 8.71484C60.7559 8.75586 60.8203 8.79688 60.8906 8.83789C60.9609 8.87305 61.0342 8.90527 61.1104 8.93457C61.1924 8.95801 61.2773 8.96973 61.3652 8.96973C61.5996 8.96973 61.7871 8.88477 61.9277 8.71484C62.0684 8.54492 62.1387 8.3457 62.1387 8.11719C62.1387 7.98242 62.1064 7.84766 62.042 7.71289C61.9834 7.57227 61.8896 7.44629 61.7607 7.33496C61.6318 7.21777 61.4648 7.12402 61.2598 7.05371C61.0605 6.9834 60.8203 6.94824 60.5391 6.94824C60.1699 6.94824 59.8447 7.01563 59.5635 7.15039C59.2822 7.28516 59.0479 7.4668 58.8604 7.69531C58.6729 7.91797 58.5293 8.17285 58.4297 8.45996C58.3359 8.74121 58.2891 9.03125 58.2891 9.33008C58.2891 9.55273 58.3154 9.76953 58.3682 9.98047C58.4268 10.1914 58.5088 10.3906 58.6143 10.5781C58.7256 10.7598 58.8633 10.9268 59.0273 11.0791C59.1973 11.2256 59.3965 11.3428 59.625 11.4307C59.7422 11.4014 59.8535 11.3838 59.959 11.3779C60.0645 11.3662 60.1611 11.3604 60.249 11.3604C60.4014 11.3604 60.5215 11.3838 60.6094 11.4307C60.6973 11.4717 60.7412 11.5332 60.7412 11.6152C60.7412 11.7383 60.6914 11.832 60.5918 11.8965C60.4922 11.9609 60.3604 11.9932 60.1963 11.9932C60.0967 11.9932 59.9883 11.9844 59.8711 11.9668C59.7598 11.9492 59.6396 11.9199 59.5107 11.8789C59.1064 11.9727 58.752 12.1367 58.4473 12.3711C58.1426 12.5996 57.8877 12.875 57.6826 13.1973C57.4775 13.5195 57.3223 13.874 57.2168 14.2607C57.1172 14.6416 57.0674 15.0312 57.0674 15.4297C57.0674 15.9102 57.1406 16.3848 57.2871 16.8535C57.4395 17.3223 57.668 17.7412 57.9727 18.1104C58.2773 18.4795 58.6553 18.7783 59.1064 19.0068C59.5576 19.2354 60.0879 19.3496 60.6973 19.3496C61.125 19.3496 61.5381 19.2822 61.9365 19.1475C62.3408 19.0127 62.6953 18.8135 63 18.5498C63.3105 18.2861 63.5596 17.9609 63.7471 17.5742C63.9346 17.1875 64.0283 16.7422 64.0283 16.2383C64.0283 15.834 63.9609 15.4795 63.8262 15.1748C63.6914 14.8643 63.5127 14.6006 63.29 14.3838C63.0498 14.4834 62.8096 14.583 62.5693 14.6826C62.335 14.7822 62.0918 14.873 61.8398 14.9551C61.5938 15.0371 61.3418 15.1045 61.084 15.1572C60.8262 15.2041 60.5596 15.2275 60.2842 15.2275C60.0732 15.2275 59.8887 15.2012 59.7305 15.1484C59.5781 15.0957 59.4492 15.0283 59.3438 14.9463C59.2441 14.8584 59.168 14.7588 59.1152 14.6475C59.0684 14.5361 59.0449 14.4189 59.0449 14.2959C59.0449 14.1084 59.0947 13.9414 59.1943 13.7949C59.2998 13.6484 59.4404 13.5254 59.6162 13.4258C59.792 13.3203 59.9971 13.2412 60.2314 13.1885C60.4717 13.1357 60.7236 13.1094 60.9873 13.1094C61.2686 13.1094 61.5586 13.1416 61.8574 13.2061C62.1621 13.2646 62.4609 13.3584 62.7539 13.4873C63.123 13.3057 63.5127 13.1445 63.9229 13.0039C64.333 12.8574 64.7783 12.7842 65.2588 12.7842C65.5811 12.7842 65.8594 12.8281 66.0938 12.916C66.3281 12.998 66.5215 13.1064 66.6738 13.2412C66.832 13.376 66.9463 13.5283 67.0166 13.6982C67.0928 13.8682 67.1309 14.0381 67.1309 14.208C67.1309 14.3662 67.1016 14.5186 67.043 14.665C66.9844 14.8115 66.8965 14.9434 66.7793 15.0605C66.668 15.1777 66.5303 15.2715 66.3662 15.3418C66.2021 15.4121 66.0176 15.4473 65.8125 15.4473L65.7773 15.0869ZM60.9873 13.5225C60.6533 13.5225 60.375 13.5693 60.1523 13.6631C59.9297 13.751 59.8184 13.8711 59.8184 14.0234C59.8184 14.1172 59.8711 14.1963 59.9766 14.2607C60.082 14.3193 60.252 14.3486 60.4863 14.3486C60.7559 14.3486 61.0342 14.29 61.3213 14.1729C61.6143 14.0557 61.9248 13.915 62.2529 13.751C62.0303 13.6689 61.8105 13.6104 61.5938 13.5752C61.377 13.54 61.1748 13.5225 60.9873 13.5225ZM27.7998 35.3203C27.7998 36.375 27.9199 37.2949 28.1602 38.0801C28.4004 38.8652 28.7168 39.5186 29.1094 40.04C29.5078 40.5615 29.959 40.9541 30.4629 41.2178C30.9727 41.4756 31.4941 41.6045 32.0273 41.6045C32.4082 41.6045 32.7832 41.5342 33.1523 41.3936C33.5273 41.2529 33.8906 41.042 34.2422 40.7607C34.5938 40.4795 34.9307 40.1279 35.2529 39.7061C35.5811 39.2842 35.8857 38.7891 36.167 38.2207L36.2637 38.0361L36.624 38.3086L36.5273 38.4932C36.2051 39.1436 35.8477 39.7148 35.4551 40.207C35.0684 40.6992 34.6553 41.1123 34.2158 41.4463C33.7764 41.7744 33.3193 42.0234 32.8447 42.1934C32.376 42.3633 31.8955 42.4482 31.4033 42.4482C30.9814 42.4482 30.5625 42.3867 30.1465 42.2637C29.7363 42.1465 29.3438 41.9678 28.9688 41.7275C28.5996 41.4814 28.2539 41.1738 27.9316 40.8047C27.6152 40.4355 27.3398 40.0049 27.1055 39.5127C26.8711 39.0146 26.6865 38.4551 26.5518 37.834C26.4229 37.207 26.3584 36.5186 26.3584 35.7686C26.3584 34.7783 26.4404 33.8818 26.6045 33.0791C26.7744 32.2705 27 31.5527 27.2812 30.9258C27.5684 30.293 27.8994 29.7451 28.2744 29.2822C28.6553 28.8193 29.0537 28.4385 29.4697 28.1396C29.8857 27.835 30.3105 27.6094 30.7441 27.4629C31.1777 27.3164 31.5938 27.2432 31.9922 27.2432C32.5137 27.2432 32.9941 27.334 33.4336 27.5156C33.873 27.6914 34.251 27.9434 34.5674 28.2715C34.8838 28.5938 35.1299 28.9893 35.3057 29.458C35.4873 29.9209 35.5781 30.4365 35.5781 31.0049C35.5781 31.5498 35.4932 32.0625 35.3232 32.543C35.1592 33.0234 34.9365 33.4453 34.6553 33.8086C34.3799 34.166 34.0605 34.4502 33.6973 34.6611C33.3398 34.8721 32.9648 34.9775 32.5723 34.9775C32.3086 34.9775 32.0625 34.9307 31.834 34.8369C31.6055 34.7432 31.4062 34.6113 31.2363 34.4414C31.0664 34.2715 30.9316 34.0635 30.832 33.8174C30.7324 33.5713 30.6826 33.2988 30.6826 33C30.6826 32.7129 30.7266 32.4375 30.8145 32.1738C30.9023 31.9043 31.0137 31.6582 31.1484 31.4355C31.2832 31.207 31.4297 31.0078 31.5879 30.8379C31.752 30.6621 31.9102 30.5244 32.0625 30.4248L32.2998 30.6621C32.1768 30.8027 32.0596 30.9551 31.9482 31.1191C31.8428 31.2773 31.749 31.4502 31.667 31.6377C31.585 31.8193 31.5205 32.0156 31.4736 32.2266C31.4268 32.4375 31.4033 32.666 31.4033 32.9121C31.4033 33.1641 31.4326 33.3896 31.4912 33.5889C31.5557 33.7881 31.6406 33.958 31.7461 34.0986C31.8574 34.2393 31.9834 34.3477 32.124 34.4238C32.2646 34.4941 32.4141 34.5293 32.5723 34.5293C32.7891 34.5293 33.0059 34.4502 33.2227 34.292C33.4395 34.1279 33.6328 33.8906 33.8027 33.5801C33.9727 33.2637 34.1104 32.877 34.2158 32.4199C34.3213 31.9629 34.374 31.4355 34.374 30.8379C34.374 30.2988 34.3125 29.833 34.1895 29.4404C34.0723 29.042 33.9082 28.7139 33.6973 28.4561C33.4863 28.1982 33.2373 28.0078 32.9502 27.8848C32.6631 27.7559 32.3555 27.6914 32.0273 27.6914C31.793 27.6914 31.5264 27.7441 31.2275 27.8496C30.9287 27.9492 30.6211 28.1162 30.3047 28.3506C29.9941 28.585 29.6895 28.8955 29.3906 29.2822C29.0918 29.6631 28.8223 30.1377 28.582 30.7061C28.3477 31.2686 28.1572 31.9307 28.0107 32.6924C27.8701 33.4541 27.7998 34.3301 27.7998 35.3203ZM41.5898 39.8203C41.5898 40.1543 41.6191 40.4355 41.6777 40.6641C41.7363 40.8926 41.8389 41.0068 41.9854 41.0068C42.0732 41.0068 42.167 40.9658 42.2666 40.8838C42.3721 40.7959 42.4922 40.6553 42.627 40.4619C42.7617 40.2686 42.9141 40.0195 43.084 39.7148C43.2598 39.4043 43.459 39.0264 43.6816 38.5811L43.9453 38.0361L44.3057 38.3086L44.042 38.8535C43.7959 39.3457 43.5645 39.7881 43.3477 40.1807C43.1367 40.5674 42.9346 40.8955 42.7412 41.165C42.5479 41.4346 42.3574 41.6426 42.1699 41.7891C41.9883 41.9297 41.8066 42 41.625 42C41.4316 42 41.2676 41.9473 41.1328 41.8418C41.0039 41.7363 40.8955 41.5928 40.8076 41.4111C40.7197 41.2236 40.6523 41.0098 40.6055 40.7695C40.5586 40.5234 40.5264 40.2627 40.5088 39.9873C40.3682 40.2686 40.2129 40.5322 40.043 40.7783C39.873 41.0186 39.6943 41.2295 39.5068 41.4111C39.3252 41.5928 39.1348 41.7363 38.9355 41.8418C38.7363 41.9473 38.5371 42 38.3379 42C38.0449 42 37.7607 41.9385 37.4854 41.8154C37.21 41.6924 36.9639 41.5049 36.7471 41.2529C36.5361 41.001 36.3662 40.6846 36.2373 40.3037C36.1084 39.917 36.0439 39.4629 36.0439 38.9414C36.0439 38.332 36.123 37.7754 36.2812 37.2715C36.4395 36.7617 36.6533 36.3252 36.9229 35.9619C37.1924 35.5928 37.5029 35.3086 37.8545 35.1094C38.2061 34.9043 38.5752 34.8018 38.9619 34.8018C39.1963 34.8018 39.4131 34.8545 39.6123 34.96C39.8115 35.0654 39.9844 35.1943 40.1309 35.3467C40.2832 35.4932 40.4092 35.6514 40.5088 35.8213C40.6084 35.9854 40.6758 36.126 40.7109 36.2432L40.8164 35.3906C40.8281 35.2793 40.8809 35.1855 40.9746 35.1094C41.0742 35.0332 41.1826 34.9746 41.2998 34.9336C41.417 34.8867 41.5312 34.8545 41.6426 34.8369C41.7539 34.8135 41.833 34.8018 41.8799 34.8018C41.9502 34.8018 41.9971 34.8135 42.0205 34.8369C42.0439 34.8604 42.0557 34.9072 42.0557 34.9775C42.0557 35.0654 42.0293 35.2441 41.9766 35.5137C41.9297 35.7773 41.877 36.1172 41.8184 36.5332C41.7656 36.9434 41.7129 37.4268 41.6602 37.9834C41.6133 38.54 41.5898 39.1523 41.5898 39.8203ZM40.623 37.5C40.623 37.2305 40.582 36.9668 40.5 36.709C40.418 36.4453 40.3066 36.2139 40.166 36.0146C40.0254 35.8096 39.8613 35.6455 39.6738 35.5225C39.4922 35.3994 39.2988 35.3379 39.0938 35.3379C38.8418 35.3379 38.6045 35.4111 38.3818 35.5576C38.165 35.6982 37.9746 35.9004 37.8105 36.1641C37.6523 36.4219 37.5264 36.7354 37.4326 37.1045C37.3389 37.4678 37.292 37.8691 37.292 38.3086C37.292 39.1875 37.4297 39.8584 37.7051 40.3213C37.9805 40.7783 38.3467 41.0068 38.8037 41.0068C39.0029 41.0068 39.208 40.9277 39.4189 40.7695C39.6357 40.6055 39.832 40.374 40.0078 40.0752C40.1895 39.7705 40.3359 39.4014 40.4473 38.9678C40.5645 38.5342 40.623 38.0449 40.623 37.5ZM43.8574 38.2207L43.9453 38.0361C44.0332 37.8604 44.1123 37.6787 44.1826 37.4912C44.2588 37.3037 44.3232 37.1279 44.376 36.9639C44.4287 36.7939 44.4697 36.6445 44.499 36.5156C44.5283 36.3809 44.5488 36.2783 44.5605 36.208C44.4082 36.1904 44.2617 36.1523 44.1211 36.0938C43.9805 36.0352 43.8574 35.9561 43.752 35.8564C43.6465 35.7568 43.5645 35.6396 43.5059 35.5049C43.4414 35.3701 43.4092 35.2178 43.4092 35.0479C43.4092 34.9131 43.4326 34.793 43.4795 34.6875C43.5264 34.582 43.5908 34.4941 43.6729 34.4238C43.749 34.3535 43.8369 34.3008 43.9365 34.2656C44.0303 34.2246 44.1299 34.2041 44.2354 34.2041C44.376 34.2041 44.499 34.2334 44.6045 34.292C44.71 34.3506 44.7979 34.4297 44.8682 34.5293C44.9385 34.623 44.9912 34.7344 45.0264 34.8633C45.0615 34.9863 45.0791 35.1152 45.0791 35.25C45.2432 35.25 45.4189 35.2266 45.6064 35.1797C45.7998 35.1328 45.9932 35.083 46.1865 35.0303C46.3799 34.9717 46.5703 34.9189 46.7578 34.8721C46.9453 34.8252 47.1182 34.8018 47.2764 34.8018C47.4111 34.8018 47.5195 34.8311 47.6016 34.8896C47.6836 34.9424 47.7246 35.0332 47.7246 35.1621C47.7246 35.2559 47.6953 35.4111 47.6367 35.6279C47.584 35.8447 47.5166 36.0967 47.4346 36.3838C47.3525 36.6709 47.2617 36.9844 47.1621 37.3242C47.0684 37.6582 46.9805 37.998 46.8984 38.3438C46.8164 38.6836 46.7461 39.0146 46.6875 39.3369C46.6348 39.6592 46.6084 39.9463 46.6084 40.1982C46.6084 40.5146 46.6436 40.7285 46.7139 40.8398C46.7842 40.9512 46.9102 41.0068 47.0918 41.0068C47.168 41.0068 47.2617 40.9746 47.373 40.9102C47.4902 40.8398 47.6309 40.708 47.7949 40.5146C47.959 40.3154 48.1523 40.0342 48.375 39.6709C48.6035 39.3018 48.8672 38.8184 49.166 38.2207L49.2539 38.0361L49.6143 38.3086L49.5264 38.4932C49.1748 39.1963 48.8613 39.7734 48.5859 40.2246C48.3105 40.6758 48.0557 41.0332 47.8213 41.2969C47.5928 41.5605 47.376 41.7451 47.1709 41.8506C46.9658 41.9502 46.7607 42 46.5557 42C46.21 42 45.9287 41.8682 45.7119 41.6045C45.4951 41.3408 45.3867 40.9336 45.3867 40.3828C45.3867 40.084 45.4277 39.7734 45.5098 39.4512C45.5918 39.1289 45.6943 38.8096 45.8174 38.4932C45.9404 38.1709 46.0781 37.8545 46.2305 37.5439C46.3828 37.2334 46.5264 36.9404 46.6611 36.665C46.8018 36.3838 46.9277 36.123 47.0391 35.8828C47.1504 35.6426 47.2295 35.4316 47.2764 35.25L47.2236 35.1973C47.1299 35.1973 47.0039 35.2471 46.8457 35.3467C46.6875 35.4463 46.5088 35.5605 46.3096 35.6895C46.1162 35.8125 45.9082 35.9297 45.6855 36.041C45.4629 36.1523 45.2373 36.2197 45.0088 36.2432C44.9971 36.3252 44.9707 36.4453 44.9297 36.6035C44.8945 36.7617 44.8447 36.9375 44.7803 37.1309C44.7158 37.3242 44.6426 37.5234 44.5605 37.7285C44.4785 37.9336 44.3936 38.127 44.3057 38.3086L44.2178 38.4932L43.8574 38.2207ZM44.2881 34.6963C44.2354 34.6963 44.1914 34.7139 44.1562 34.749C44.1211 34.7842 44.1035 34.8252 44.1035 34.8721C44.1035 34.9424 44.1211 35.0039 44.1562 35.0566C44.1914 35.1035 44.2354 35.1445 44.2881 35.1797C44.3408 35.209 44.3936 35.2324 44.4463 35.25C44.5049 35.2617 44.5547 35.2676 44.5957 35.2676C44.5957 35.1035 44.5693 34.9688 44.5166 34.8633C44.4639 34.752 44.3877 34.6963 44.2881 34.6963ZM52.1191 35.4258C51.9492 35.4258 51.7852 35.4873 51.627 35.6104C51.4746 35.7275 51.3281 35.8916 51.1875 36.1025C51.0469 36.3076 50.9092 36.5508 50.7744 36.832C50.6455 37.1074 50.5166 37.4033 50.3877 37.7197V37.8252C50.3701 38.3408 50.3525 38.8887 50.335 39.4688C50.3232 40.0488 50.3174 40.6816 50.3174 41.3672C50.3174 41.4844 50.2764 41.584 50.1943 41.666C50.1182 41.7422 50.0273 41.8066 49.9219 41.8594C49.8164 41.9062 49.708 41.9414 49.5967 41.9648C49.4854 41.9883 49.3945 42 49.3242 42C49.2363 42 49.1543 41.9736 49.0781 41.9209C49.002 41.8682 48.9639 41.751 48.9639 41.5693C48.9639 41.4814 48.9727 41.373 48.9902 41.2441C49.0078 41.1094 49.0312 40.9658 49.0605 40.8135C49.084 40.6611 49.1133 40.5059 49.1484 40.3477C49.1777 40.1836 49.207 40.0312 49.2363 39.8906C49.2363 39.3926 49.2363 38.9443 49.2363 38.5459C49.2305 38.1475 49.2275 37.793 49.2275 37.4824C49.2275 37.1719 49.2275 36.8994 49.2275 36.665C49.2217 36.4307 49.2188 36.2285 49.2188 36.0586C49.2188 35.7773 49.2246 35.5723 49.2363 35.4434C49.2422 35.3086 49.2539 35.2148 49.2715 35.1621C49.3008 35.0801 49.3535 35.0156 49.4297 34.9688C49.5117 34.9219 49.5967 34.8867 49.6846 34.8633C49.7725 34.834 49.8604 34.8164 49.9482 34.8105C50.0361 34.8047 50.1035 34.8018 50.1504 34.8018C50.2617 34.8018 50.335 34.834 50.3701 34.8984C50.4053 34.9629 50.4229 35.0625 50.4229 35.1973C50.4229 35.502 50.4229 35.7773 50.4229 36.0234C50.4229 36.2695 50.417 36.5156 50.4053 36.7617C50.5166 36.498 50.6455 36.249 50.792 36.0146C50.9443 35.7744 51.1113 35.5664 51.293 35.3906C51.4746 35.209 51.665 35.0654 51.8643 34.96C52.0693 34.8545 52.2803 34.8018 52.4971 34.8018C52.7607 34.8018 52.9775 34.8574 53.1475 34.9688C53.3232 35.0742 53.4609 35.2236 53.5605 35.417C53.666 35.6104 53.7422 35.8389 53.7891 36.1025C53.8418 36.3604 53.877 36.6416 53.8945 36.9463C54.0586 36.6475 54.2344 36.3691 54.4219 36.1113C54.6152 35.8477 54.8174 35.6191 55.0283 35.4258C55.2451 35.2324 55.4707 35.0801 55.7051 34.9688C55.9453 34.8574 56.1943 34.8018 56.4521 34.8018C56.8975 34.8018 57.2227 34.9424 57.4277 35.2236C57.6328 35.499 57.7354 35.874 57.7354 36.3486C57.7354 36.6475 57.7119 36.9814 57.665 37.3506C57.6182 37.7197 57.5684 38.0947 57.5156 38.4756C57.4629 38.8506 57.4131 39.2197 57.3662 39.583C57.3193 39.9463 57.2959 40.2773 57.2959 40.5762C57.2959 40.9395 57.3867 41.1211 57.5684 41.1211C57.6621 41.1211 57.7646 41.0654 57.876 40.9541C57.9873 40.8369 58.1133 40.6611 58.2539 40.4268C58.4004 40.1865 58.5674 39.8848 58.7549 39.5215C58.9482 39.1582 59.1709 38.7246 59.4229 38.2207L59.5107 38.0361L59.8711 38.3086L59.7832 38.4932C59.4375 39.1846 59.1416 39.7559 58.8955 40.207C58.6553 40.6582 58.4385 41.0186 58.2451 41.2881C58.0518 41.5518 57.8672 41.7363 57.6914 41.8418C57.5215 41.9473 57.3311 42 57.1201 42C56.9971 42 56.877 41.9824 56.7598 41.9473C56.6426 41.9121 56.54 41.8506 56.4521 41.7627C56.3643 41.6748 56.2939 41.5576 56.2412 41.4111C56.1885 41.2588 56.1621 41.0654 56.1621 40.8311C56.1621 40.4795 56.1855 40.084 56.2324 39.6445C56.2793 39.2051 56.332 38.7656 56.3906 38.3262C56.4492 37.8867 56.502 37.4736 56.5488 37.0869C56.5957 36.6943 56.6191 36.375 56.6191 36.1289C56.6191 35.9121 56.5723 35.7393 56.4785 35.6104C56.3848 35.4756 56.2441 35.4082 56.0566 35.4082C55.8691 35.4082 55.6729 35.4814 55.4678 35.6279C55.2686 35.7744 55.0723 35.9648 54.8789 36.1992C54.6914 36.4277 54.5127 36.6855 54.3428 36.9727C54.1787 37.2598 54.0352 37.5439 53.9121 37.8252C53.9121 38.4404 53.9062 38.9795 53.8945 39.4424C53.8828 39.8994 53.8652 40.2861 53.8418 40.6025C53.8242 40.9189 53.7979 41.1709 53.7627 41.3584C53.7275 41.54 53.6895 41.6631 53.6484 41.7275C53.6191 41.7686 53.5693 41.8066 53.499 41.8418C53.4287 41.877 53.3496 41.9062 53.2617 41.9297C53.1797 41.9531 53.0977 41.9707 53.0156 41.9824C52.9395 41.9941 52.8809 42 52.8398 42C52.7461 42 52.6641 41.9736 52.5938 41.9209C52.5293 41.8623 52.4971 41.751 52.4971 41.5869C52.4971 41.5107 52.5029 41.4082 52.5146 41.2793C52.5322 41.1504 52.5527 41.0068 52.5762 40.8486C52.5996 40.6904 52.626 40.5205 52.6553 40.3389C52.6846 40.1572 52.7139 39.9727 52.7432 39.7852C52.749 39.6094 52.7549 39.4131 52.7607 39.1963C52.7666 38.9795 52.7725 38.7656 52.7783 38.5547C52.7842 38.3379 52.7871 38.1328 52.7871 37.9395C52.793 37.7402 52.7959 37.5703 52.7959 37.4297C52.7959 37.1309 52.7871 36.8584 52.7695 36.6123C52.752 36.3662 52.7168 36.1553 52.6641 35.9795C52.6172 35.8037 52.5498 35.6689 52.4619 35.5752C52.374 35.4756 52.2598 35.4258 52.1191 35.4258ZM62.1123 41.0068C62.3174 41.0068 62.5254 40.9541 62.7363 40.8486C62.9531 40.7432 63.1699 40.5791 63.3867 40.3564C63.6094 40.1338 63.8379 39.8467 64.0723 39.4951C64.3066 39.1377 64.5469 38.7129 64.793 38.2207L64.8809 38.0361L65.2412 38.3086L65.1533 38.4932C64.8369 39.1201 64.5205 39.6562 64.2041 40.1016C63.8936 40.5469 63.5859 40.9102 63.2812 41.1914C62.9824 41.4727 62.6865 41.6777 62.3936 41.8066C62.1006 41.9355 61.8193 42 61.5498 42C61.1689 42 60.8291 41.9209 60.5303 41.7627C60.2314 41.6045 59.9795 41.3906 59.7744 41.1211C59.5693 40.8457 59.4141 40.5293 59.3086 40.1719C59.1973 39.8086 59.1416 39.4277 59.1416 39.0293C59.1416 38.3965 59.2295 37.8223 59.4053 37.3066C59.5752 36.7852 59.8037 36.3398 60.0908 35.9707C60.3838 35.6016 60.7148 35.3145 61.084 35.1094C61.4531 34.9043 61.8369 34.8018 62.2354 34.8018C62.6396 34.8018 62.9473 34.9043 63.1582 35.1094C63.375 35.3145 63.4834 35.5723 63.4834 35.8828C63.4834 36.1816 63.3984 36.4629 63.2285 36.7266C63.0586 36.9844 62.8271 37.2393 62.5342 37.4912C62.2471 37.7373 61.9131 37.9834 61.5322 38.2295C61.1514 38.4697 60.75 38.7188 60.3281 38.9766C60.3691 39.2812 60.4395 39.5596 60.5391 39.8115C60.6387 40.0576 60.7646 40.2715 60.917 40.4531C61.0693 40.6289 61.2451 40.7666 61.4443 40.8662C61.6436 40.96 61.8662 41.0068 62.1123 41.0068ZM62.3848 36.1465C62.3848 35.9121 62.3203 35.7275 62.1914 35.5928C62.0684 35.458 61.916 35.3906 61.7344 35.3906C61.582 35.3906 61.4209 35.4463 61.251 35.5576C61.0811 35.6631 60.9258 35.8359 60.7852 36.0762C60.6445 36.3105 60.5273 36.6123 60.4336 36.9814C60.3398 37.3506 60.293 37.7988 60.293 38.3262V38.5283C60.4922 38.4229 60.7119 38.2852 60.9521 38.1152C61.1982 37.9395 61.4268 37.7461 61.6377 37.5352C61.8486 37.3242 62.0244 37.1016 62.165 36.8672C62.3115 36.627 62.3848 36.3867 62.3848 36.1465ZM68.2646 35.4082C68.1006 35.4082 67.916 35.4814 67.7109 35.6279C67.5117 35.7744 67.3096 35.9648 67.1045 36.1992C66.8994 36.4277 66.7002 36.6855 66.5068 36.9727C66.3193 37.2598 66.1553 37.5439 66.0146 37.8252C65.9971 38.3408 65.9795 38.9033 65.9619 39.5127C65.9502 40.1221 65.9443 40.7725 65.9443 41.4639C65.9443 41.5518 65.9033 41.6309 65.8213 41.7012C65.7451 41.7656 65.6543 41.8213 65.5488 41.8682C65.4434 41.9092 65.335 41.9414 65.2236 41.9648C65.1123 41.9883 65.0215 42 64.9512 42C64.8633 42 64.7812 41.9736 64.7051 41.9209C64.6289 41.8682 64.5908 41.751 64.5908 41.5693C64.5908 41.4814 64.5996 41.373 64.6172 41.2441C64.6348 41.1094 64.6582 40.9658 64.6875 40.8135C64.7109 40.6611 64.7402 40.5059 64.7754 40.3477C64.8047 40.1836 64.834 40.0312 64.8633 39.8906V35.5928C64.8633 35.4756 64.8662 35.3848 64.8721 35.3203C64.8721 35.25 64.8809 35.1973 64.8984 35.1621C64.9336 35.0801 64.9951 35.0156 65.083 34.9688C65.1709 34.9219 65.2646 34.8867 65.3643 34.8633C65.4639 34.834 65.5605 34.8164 65.6543 34.8105C65.748 34.8047 65.8213 34.8018 65.874 34.8018C65.9736 34.8018 66.041 34.8281 66.0762 34.8809C66.1172 34.9336 66.1377 35.0273 66.1377 35.1621C66.1377 35.1445 66.123 35.2881 66.0938 35.5928C66.0703 35.8975 66.0498 36.334 66.0322 36.9023C66.208 36.627 66.3984 36.3633 66.6035 36.1113C66.8086 35.8594 67.0225 35.6367 67.2451 35.4434C67.4678 35.25 67.6963 35.0947 67.9307 34.9775C68.1709 34.8604 68.4141 34.8018 68.6602 34.8018C69.0996 34.8018 69.4219 34.9424 69.627 35.2236C69.832 35.499 69.9346 35.874 69.9346 36.3486C69.9346 36.6475 69.9141 36.9814 69.873 37.3506C69.8379 37.7139 69.7939 38.0859 69.7412 38.4668C69.6943 38.8418 69.6504 39.2109 69.6094 39.5742C69.5742 39.9316 69.5566 40.2598 69.5566 40.5586C69.5566 40.9453 69.6768 41.1387 69.917 41.1387C69.9932 41.1387 70.0811 41.1006 70.1807 41.0244C70.2861 40.9424 70.415 40.793 70.5674 40.5762C70.7256 40.3594 70.9131 40.0635 71.1299 39.6885C71.3467 39.3076 71.6045 38.8184 71.9033 38.2207L71.9912 38.0361L72.3516 38.3086L72.2637 38.4932C71.9121 39.1963 71.5986 39.7734 71.3232 40.2246C71.0537 40.6758 70.8076 41.0332 70.585 41.2969C70.3623 41.5605 70.1543 41.7451 69.9609 41.8506C69.7676 41.9502 69.5742 42 69.3809 42C69.2578 42 69.1348 41.9824 69.0117 41.9473C68.8887 41.9121 68.7803 41.8506 68.6865 41.7627C68.5928 41.6748 68.5166 41.5576 68.458 41.4111C68.3994 41.2588 68.3701 41.0654 68.3701 40.8311C68.3701 40.4795 68.3936 40.084 68.4404 39.6445C68.4873 39.2051 68.54 38.7656 68.5986 38.3262C68.6572 37.8867 68.71 37.4736 68.7568 37.0869C68.8037 36.6943 68.8271 36.375 68.8271 36.1289C68.8271 35.9121 68.7803 35.7393 68.6865 35.6104C68.5928 35.4756 68.4521 35.4082 68.2646 35.4082Z" fill="white"/>
</g>
<defs>
<filter id="filter0_d_49_4" x="4.58887" y="0.243164" width="72.7627" height="47.2051" filterUnits="userSpaceOnUse" color-interpolation-filters="sRGB">
<feFlood flood-opacity="0" result="BackgroundImageFix"/>
<feColorMatrix in="SourceAlpha" type="matrix" values="0 0 0 0 0 0 0 0 0 0 0 0 0 0 0 0 0 0 127 0" result="hardAlpha"/>
<feOffset/>
<feGaussianBlur stdDeviation="2.5"/>
<feComposite in2="hardAlpha" operator="out"/>
<feColorMatrix type="matrix" values="0 0 0 0 0 0 0 0 0 0 0 0 0 0 0 0 0 0 1 0"/>
<feBlend mode="normal" in2="BackgroundImageFix" result="effect1_dropShadow_49_4"/>
<feBlend mode="normal" in="SourceGraphic" in2="effect1_dropShadow_49_4" result="shape"/>
</filter>
</defs>
</svg>
