<svg width="63" height="38" viewBox="0 0 63 38" fill="none" xmlns="http://www.w3.org/2000/svg">
<path d="M10.5293 11.25C10.4062 11.4902 10.2627 11.7188 10.0986 11.9355C9.94043 12.1465 9.77344 12.3428 9.59766 12.5244C9.42188 12.7002 9.24609 12.8643 9.07031 13.0166C8.89453 13.1631 8.7334 13.292 8.58691 13.4033V14.4141C8.58691 15.1816 8.52539 15.8643 8.40234 16.4619C8.28516 17.0596 8.1123 17.5664 7.88379 17.9824C7.66113 18.3984 7.3916 18.7148 7.0752 18.9316C6.76465 19.1484 6.41602 19.2568 6.0293 19.2568C5.81836 19.2568 5.625 19.2129 5.44922 19.125C5.27344 19.043 5.12109 18.9287 4.99219 18.7822C4.86914 18.6357 4.77246 18.4629 4.70215 18.2637C4.63184 18.0703 4.59668 17.8623 4.59668 17.6396C4.59668 17.2119 4.66699 16.8164 4.80762 16.4531C4.9541 16.0957 5.15039 15.7559 5.39648 15.4336C5.64258 15.1172 5.92676 14.8154 6.24902 14.5283C6.57129 14.2354 6.91406 13.9453 7.27734 13.6582C7.2832 13.3359 7.29199 13.0166 7.30371 12.7002C7.32129 12.3838 7.33594 12.085 7.34766 11.8037C7.36523 11.5225 7.37988 11.2676 7.3916 11.0391C7.40918 10.8105 7.42383 10.623 7.43555 10.4766C7.23633 10.8809 7.01074 11.2793 6.75879 11.6719C6.5127 12.0586 6.24902 12.4277 5.96777 12.7793C5.68652 13.1309 5.39062 13.4561 5.08008 13.7549C4.77539 14.0479 4.46777 14.3027 4.15723 14.5195C3.84668 14.7363 3.53613 14.9033 3.22559 15.0205C2.9209 15.1436 2.62793 15.2051 2.34668 15.2051C2.03027 15.2051 1.72852 15.1406 1.44141 15.0117C1.16016 14.8887 0.911133 14.6924 0.694336 14.4229C0.483398 14.1533 0.316406 13.8076 0.193359 13.3857C0.0644531 12.9639 0 12.46 0 11.874C0 11.2178 0.0732422 10.5439 0.219727 9.85254C0.366211 9.16113 0.568359 8.47559 0.826172 7.7959C1.08398 7.11621 1.3916 6.45117 1.74902 5.80078C2.10645 5.15039 2.49609 4.53809 2.91797 3.96387C3.33984 3.38379 3.78809 2.85352 4.2627 2.37305C4.7373 1.88672 5.2207 1.46777 5.71289 1.11621C6.20508 0.764648 6.69727 0.492188 7.18945 0.298828C7.6875 0.0996094 8.1709 0 8.63965 0C9.13184 0 9.52441 0.125977 9.81738 0.37793C10.1162 0.624023 10.2656 0.975586 10.2656 1.43262C10.2656 1.67871 10.2129 1.91895 10.1074 2.15332C10.0078 2.38184 9.87012 2.60449 9.69434 2.82129C9.52441 3.03223 9.33105 3.23438 9.11426 3.42773C8.89746 3.61523 8.6748 3.78809 8.44629 3.94629C8.22363 4.10449 8.00098 4.24512 7.77832 4.36816C7.56152 4.49121 7.36816 4.59375 7.19824 4.67578L6.93457 4.31543C7.15723 4.2041 7.40039 4.0459 7.66406 3.84082C7.92773 3.63574 8.17383 3.4043 8.40234 3.14648C8.63086 2.88867 8.82129 2.61035 8.97363 2.31152C9.12598 2.0127 9.20215 1.71387 9.20215 1.41504C9.20215 1.16309 9.13477 0.955078 9 0.791016C8.87109 0.621094 8.66309 0.536133 8.37598 0.536133C7.93066 0.536133 7.45312 0.673828 6.94336 0.949219C6.43945 1.22461 5.93555 1.6084 5.43164 2.10059C4.93359 2.59277 4.45605 3.18164 3.99902 3.86719C3.54199 4.54687 3.1377 5.29395 2.78613 6.1084C2.43457 6.92285 2.15332 7.78711 1.94238 8.70117C1.73145 9.61523 1.62598 10.5527 1.62598 11.5137C1.62598 11.9355 1.65527 12.3135 1.71387 12.6475C1.77832 12.9814 1.86621 13.2656 1.97754 13.5C2.09473 13.7285 2.23535 13.9072 2.39941 14.0361C2.56934 14.1592 2.75977 14.2207 2.9707 14.2207C3.22852 14.2207 3.50977 14.1416 3.81445 13.9834C4.11914 13.8252 4.42383 13.6113 4.72852 13.3418C5.03906 13.0723 5.34375 12.7617 5.64258 12.4102C5.94141 12.0527 6.2168 11.6777 6.46875 11.2852C6.7207 10.8926 6.94043 10.4941 7.12793 10.0898C7.31543 9.68555 7.45312 9.30176 7.54102 8.93848C7.57617 8.51074 7.61133 8.12109 7.64648 7.76953C7.68164 7.41211 7.71387 7.09863 7.74316 6.8291C7.77832 6.55957 7.81055 6.34277 7.83984 6.17871C7.86914 6.00879 7.89551 5.89746 7.91895 5.84473C7.96582 5.75684 8.0332 5.66895 8.12109 5.58105C8.20898 5.49316 8.30273 5.41699 8.40234 5.35254C8.50781 5.28223 8.61035 5.22656 8.70996 5.18555C8.80957 5.14453 8.89453 5.12402 8.96484 5.12402C9.05859 5.12402 9.12012 5.16211 9.14941 5.23828C9.18457 5.31445 9.20215 5.39648 9.20215 5.48438C9.20215 5.74219 9.1582 6.08496 9.07031 6.5127C8.98242 6.94043 8.87109 7.43848 8.73633 8.00684C8.67773 8.25293 8.63379 8.57812 8.60449 8.98242C8.58105 9.38086 8.56348 9.80859 8.55176 10.2656C8.5459 10.7168 8.54297 11.1738 8.54297 11.6367C8.54297 12.0938 8.54004 12.5039 8.53418 12.8672C8.96777 12.5508 9.31348 12.2256 9.57129 11.8916C9.83496 11.5518 10.0342 11.2471 10.1689 10.9775L10.2656 10.793L10.626 11.0654L10.5293 11.25ZM7.25977 14.3086C6.98438 14.5254 6.73242 14.7539 6.50391 14.9941C6.27539 15.2344 6.0791 15.4922 5.91504 15.7676C5.75684 16.043 5.63086 16.3418 5.53711 16.6641C5.44922 16.9922 5.40527 17.3467 5.40527 17.7275C5.40527 18.0908 5.46387 18.3604 5.58105 18.5361C5.69824 18.7178 5.84766 18.8086 6.0293 18.8086C6.21094 18.8086 6.375 18.7295 6.52148 18.5713C6.67383 18.4189 6.80273 18.1641 6.9082 17.8066C7.01953 17.4551 7.10449 16.9922 7.16309 16.418C7.22754 15.8438 7.25977 15.1406 7.25977 14.3086ZM12.8672 13.7637C13.0723 13.7637 13.2803 13.7109 13.4912 13.6055C13.708 13.5 13.9248 13.3359 14.1416 13.1133C14.3643 12.8906 14.5928 12.6035 14.8271 12.252C15.0615 11.8945 15.3018 11.4697 15.5479 10.9775L15.6357 10.793L15.9961 11.0654L15.9082 11.25C15.5918 11.877 15.2754 12.4131 14.959 12.8584C14.6484 13.3037 14.3408 13.667 14.0361 13.9482C13.7373 14.2295 13.4414 14.4346 13.1484 14.5635C12.8555 14.6924 12.5742 14.7568 12.3047 14.7568C11.9238 14.7568 11.584 14.6777 11.2852 14.5195C10.9863 14.3613 10.7344 14.1475 10.5293 13.8779C10.3242 13.6025 10.1689 13.2861 10.0635 12.9287C9.95215 12.5654 9.89648 12.1846 9.89648 11.7861C9.89648 11.1533 9.98438 10.5791 10.1602 10.0635C10.3301 9.54199 10.5586 9.09668 10.8457 8.72754C11.1387 8.3584 11.4697 8.07129 11.8389 7.86621C12.208 7.66113 12.5918 7.55859 12.9902 7.55859C13.3945 7.55859 13.7021 7.66113 13.9131 7.86621C14.1299 8.07129 14.2383 8.3291 14.2383 8.63965C14.2383 8.93848 14.1533 9.21973 13.9834 9.4834C13.8135 9.74121 13.582 9.99609 13.2891 10.248C13.002 10.4941 12.668 10.7402 12.2871 10.9863C11.9062 11.2266 11.5049 11.4756 11.083 11.7334C11.124 12.0381 11.1943 12.3164 11.2939 12.5684C11.3936 12.8145 11.5195 13.0283 11.6719 13.21C11.8242 13.3857 12 13.5234 12.1992 13.623C12.3984 13.7168 12.6211 13.7637 12.8672 13.7637ZM13.1396 8.90332C13.1396 8.66895 13.0752 8.48438 12.9463 8.34961C12.8232 8.21484 12.6709 8.14746 12.4893 8.14746C12.3369 8.14746 12.1758 8.20312 12.0059 8.31445C11.8359 8.41992 11.6807 8.59277 11.54 8.83301C11.3994 9.06738 11.2822 9.36914 11.1885 9.73828C11.0947 10.1074 11.0479 10.5557 11.0479 11.083V11.2852C11.2471 11.1797 11.4668 11.042 11.707 10.8721C11.9531 10.6963 12.1816 10.5029 12.3926 10.292C12.6035 10.0811 12.7793 9.8584 12.9199 9.62402C13.0664 9.38379 13.1396 9.14355 13.1396 8.90332ZM23.001 11.0654L22.9043 11.25C22.7051 11.6484 22.4385 11.9678 22.1045 12.208C21.7764 12.4424 21.4189 12.5947 21.0322 12.665C20.9268 12.9639 20.7891 13.2422 20.6191 13.5C20.4551 13.752 20.2646 13.9717 20.0479 14.1592C19.8369 14.3467 19.5967 14.4932 19.3271 14.5986C19.0635 14.7041 18.7764 14.7568 18.4658 14.7568C18.0146 14.7568 17.6074 14.6631 17.2441 14.4756C16.8867 14.2822 16.582 14.0244 16.3301 13.7021C16.0781 13.374 15.8848 12.9932 15.75 12.5596C15.6152 12.1201 15.5479 11.6514 15.5479 11.1533C15.5479 10.7197 15.5977 10.3271 15.6973 9.97559C15.7969 9.61816 15.9229 9.30176 16.0752 9.02637C16.2275 8.74512 16.3975 8.50195 16.585 8.29688C16.7725 8.08594 16.957 7.91309 17.1387 7.77832C17.3203 7.64355 17.4844 7.54395 17.6309 7.47949C17.7832 7.40918 17.8975 7.37402 17.9736 7.37402L18.0879 7.68164C17.8477 7.85742 17.6338 8.10352 17.4463 8.41992C17.2822 8.68945 17.1328 9.04688 16.998 9.49219C16.8691 9.9375 16.8047 10.4912 16.8047 11.1533C16.8047 11.5576 16.8428 11.9502 16.9189 12.3311C16.9951 12.7119 17.1064 13.0488 17.2529 13.3418C17.3994 13.6348 17.5781 13.8691 17.7891 14.0449C18.0059 14.2207 18.249 14.3086 18.5186 14.3086C18.8877 14.3086 19.1924 14.1621 19.4326 13.8691C19.6787 13.5703 19.8604 13.1631 19.9775 12.6475C19.6729 12.583 19.3828 12.4629 19.1074 12.2871C18.832 12.1113 18.5889 11.8945 18.3779 11.6367C18.167 11.373 17.9971 11.0713 17.8682 10.7314C17.7451 10.3916 17.6836 10.0225 17.6836 9.62402C17.6836 9.2959 17.7246 9.00879 17.8066 8.7627C17.8945 8.51074 18.0088 8.30273 18.1494 8.13867C18.29 7.96875 18.4512 7.84277 18.6328 7.76074C18.8203 7.67285 19.0166 7.62891 19.2217 7.62891C19.4619 7.62891 19.708 7.69922 19.96 7.83984C20.2119 7.97461 20.4404 8.17969 20.6455 8.45508C20.8506 8.72461 21.0176 9.06445 21.1465 9.47461C21.2754 9.88477 21.3398 10.3623 21.3398 10.9072C21.3398 11.1123 21.3281 11.3145 21.3047 11.5137C21.2812 11.7129 21.2461 11.9062 21.1992 12.0938C21.4805 12.0117 21.7354 11.8799 21.9639 11.6982C22.1982 11.5166 22.3916 11.2764 22.5439 10.9775L22.6406 10.793L23.001 11.0654ZM18.2637 9.55371C18.2637 9.89941 18.3105 10.2188 18.4043 10.5117C18.5039 10.7988 18.6357 11.0537 18.7998 11.2764C18.9639 11.4932 19.1543 11.6748 19.3711 11.8213C19.5879 11.9678 19.8193 12.0703 20.0654 12.1289C20.0947 11.9648 20.1123 11.7949 20.1182 11.6191C20.1299 11.4375 20.1357 11.2529 20.1357 11.0654C20.1357 10.6494 20.1035 10.2744 20.0391 9.94043C19.9746 9.60059 19.8896 9.31348 19.7842 9.0791C19.6787 8.83887 19.5557 8.6543 19.415 8.52539C19.2744 8.39648 19.1309 8.33203 18.9844 8.33203C18.7852 8.33203 18.6152 8.44043 18.4746 8.65723C18.334 8.86816 18.2637 9.16699 18.2637 9.55371ZM22.5615 10.9775L22.6494 10.793C22.7373 10.6172 22.8164 10.4355 22.8867 10.248C22.9629 10.0605 23.0273 9.88477 23.0801 9.7207C23.1328 9.55078 23.1738 9.40137 23.2031 9.27246C23.2324 9.1377 23.2529 9.03516 23.2646 8.96484C23.1123 8.94727 22.9658 8.90918 22.8252 8.85059C22.6846 8.79199 22.5615 8.71289 22.4561 8.61328C22.3506 8.51367 22.2686 8.39648 22.21 8.26172C22.1455 8.12695 22.1133 7.97461 22.1133 7.80469C22.1133 7.66992 22.1367 7.5498 22.1836 7.44434C22.2305 7.33887 22.2949 7.25098 22.377 7.18066C22.4531 7.11035 22.541 7.05762 22.6406 7.02246C22.7344 6.98145 22.834 6.96094 22.9395 6.96094C23.0801 6.96094 23.2031 6.99023 23.3086 7.04883C23.4141 7.10742 23.502 7.18652 23.5723 7.28613C23.6426 7.37988 23.6953 7.49121 23.7305 7.62012C23.7656 7.74316 23.7832 7.87207 23.7832 8.00684C23.9473 8.00684 24.123 7.9834 24.3105 7.93652C24.5039 7.88965 24.6973 7.83984 24.8906 7.78711C25.084 7.72852 25.2744 7.67578 25.4619 7.62891C25.6494 7.58203 25.8223 7.55859 25.9805 7.55859C26.1152 7.55859 26.2236 7.58789 26.3057 7.64648C26.3877 7.69922 26.4287 7.79004 26.4287 7.91895C26.4287 8.0127 26.3994 8.16797 26.3408 8.38477C26.2881 8.60156 26.2207 8.85352 26.1387 9.14062C26.0566 9.42773 25.9658 9.74121 25.8662 10.0811C25.7725 10.415 25.6846 10.7549 25.6025 11.1006C25.5205 11.4404 25.4502 11.7715 25.3916 12.0938C25.3389 12.416 25.3125 12.7031 25.3125 12.9551C25.3125 13.2715 25.3477 13.4854 25.418 13.5967C25.4883 13.708 25.6143 13.7637 25.7959 13.7637C25.8721 13.7637 25.9658 13.7314 26.0771 13.667C26.1943 13.5967 26.335 13.4648 26.499 13.2715C26.6631 13.0723 26.8564 12.791 27.0791 12.4277C27.3076 12.0586 27.5713 11.5752 27.8701 10.9775L27.958 10.793L28.3184 11.0654L28.2305 11.25C27.8789 11.9531 27.5654 12.5303 27.29 12.9814C27.0146 13.4326 26.7598 13.79 26.5254 14.0537C26.2969 14.3174 26.0801 14.502 25.875 14.6074C25.6699 14.707 25.4648 14.7568 25.2598 14.7568C24.9141 14.7568 24.6328 14.625 24.416 14.3613C24.1992 14.0977 24.0908 13.6904 24.0908 13.1396C24.0908 12.8408 24.1318 12.5303 24.2139 12.208C24.2959 11.8857 24.3984 11.5664 24.5215 11.25C24.6445 10.9277 24.7822 10.6113 24.9346 10.3008C25.0869 9.99023 25.2305 9.69727 25.3652 9.42188C25.5059 9.14062 25.6318 8.87988 25.7432 8.63965C25.8545 8.39941 25.9336 8.18848 25.9805 8.00684L25.9277 7.9541C25.834 7.9541 25.708 8.00391 25.5498 8.10352C25.3916 8.20312 25.2129 8.31738 25.0137 8.44629C24.8203 8.56934 24.6123 8.68652 24.3896 8.79785C24.167 8.90918 23.9414 8.97656 23.7129 9C23.7012 9.08203 23.6748 9.20215 23.6338 9.36035C23.5986 9.51855 23.5488 9.69434 23.4844 9.8877C23.4199 10.0811 23.3467 10.2803 23.2646 10.4854C23.1826 10.6904 23.0977 10.8838 23.0098 11.0654L22.9219 11.25L22.5615 10.9775ZM22.9922 7.45312C22.9395 7.45312 22.8955 7.4707 22.8604 7.50586C22.8252 7.54102 22.8076 7.58203 22.8076 7.62891C22.8076 7.69922 22.8252 7.76074 22.8604 7.81348C22.8955 7.86035 22.9395 7.90137 22.9922 7.93652C23.0449 7.96582 23.0977 7.98926 23.1504 8.00684C23.209 8.01855 23.2588 8.02441 23.2998 8.02441C23.2998 7.86035 23.2734 7.72559 23.2207 7.62012C23.168 7.50879 23.0918 7.45312 22.9922 7.45312ZM30.4102 18.0879C30.4102 17.8301 30.457 17.5693 30.5508 17.3057C30.6504 17.042 30.7852 16.7725 30.9551 16.4971C31.125 16.2217 31.3213 15.9346 31.5439 15.6357C31.7725 15.3428 32.0186 15.0381 32.2822 14.7217V13.0605C32.1416 13.3359 31.9834 13.5791 31.8076 13.79C31.6318 14.001 31.4443 14.1797 31.2451 14.3262C31.0518 14.4668 30.8496 14.5752 30.6387 14.6514C30.4336 14.7217 30.2314 14.7568 30.0322 14.7568C29.7568 14.7568 29.4902 14.6895 29.2324 14.5547C28.9805 14.4199 28.7549 14.2178 28.5557 13.9482C28.3564 13.6729 28.1982 13.3271 28.0811 12.9111C27.9639 12.4951 27.9053 12.0059 27.9053 11.4434C27.9053 10.9688 27.9609 10.5 28.0723 10.0371C28.1836 9.57422 28.3506 9.16113 28.5732 8.79785C28.7959 8.42871 29.0713 8.12988 29.3994 7.90137C29.7275 7.67285 30.1113 7.55859 30.5508 7.55859C30.8965 7.55859 31.2188 7.62891 31.5176 7.76953C31.8223 7.91016 32.0771 8.11523 32.2822 8.38477V8.2793C32.2822 8.16797 32.3145 8.06836 32.3789 7.98047C32.4492 7.88672 32.5342 7.81055 32.6338 7.75195C32.7393 7.6875 32.8477 7.64062 32.959 7.61133C33.0762 7.57617 33.1787 7.55859 33.2666 7.55859C33.3662 7.55859 33.4365 7.57324 33.4775 7.60254C33.5186 7.62598 33.5391 7.66992 33.5391 7.73438C33.5391 7.82812 33.5273 8.03906 33.5039 8.36719C33.4805 8.69531 33.4688 9.17578 33.4688 9.80859V13.623C33.6152 13.4414 33.7705 13.2393 33.9346 13.0166C34.0986 12.7939 34.2627 12.5625 34.4268 12.3223C34.5908 12.0762 34.749 11.8242 34.9014 11.5664C35.0596 11.3086 35.2061 11.0508 35.3408 10.793L35.4287 10.6172L35.7891 10.8896L35.7012 11.0654C35.5605 11.3467 35.3965 11.6396 35.209 11.9443C35.0273 12.2432 34.834 12.5391 34.6289 12.832C34.4297 13.1191 34.2275 13.3975 34.0225 13.667C33.8232 13.9307 33.6387 14.168 33.4688 14.3789V16.2861C33.4688 16.8252 33.4189 17.2822 33.3193 17.6572C33.2256 18.0381 33.0938 18.3457 32.9238 18.5801C32.7598 18.8203 32.5605 18.9932 32.3262 19.0986C32.0977 19.2041 31.8486 19.2568 31.5791 19.2568C31.2451 19.2568 30.9668 19.1514 30.7441 18.9404C30.5215 18.7354 30.4102 18.4512 30.4102 18.0879ZM30.5684 13.8604C30.75 13.8604 30.9287 13.8076 31.1045 13.7021C31.2861 13.5967 31.4531 13.4619 31.6055 13.2979C31.7578 13.1338 31.8926 12.9551 32.0098 12.7617C32.1328 12.5625 32.2236 12.3691 32.2822 12.1816V9.70312C32.2822 9.43945 32.2412 9.20215 32.1592 8.99121C32.0771 8.77441 31.9688 8.59277 31.834 8.44629C31.6992 8.29395 31.5439 8.17676 31.3682 8.09473C31.1982 8.0127 31.0225 7.97168 30.8408 7.97168C30.5596 7.97168 30.3135 8.05664 30.1025 8.22656C29.8916 8.39062 29.7158 8.61035 29.5752 8.88574C29.4346 9.15527 29.3291 9.46582 29.2588 9.81738C29.1943 10.1689 29.1621 10.5264 29.1621 10.8896C29.1621 11.3408 29.1885 11.748 29.2412 12.1113C29.2998 12.4746 29.3877 12.7881 29.5049 13.0518C29.6221 13.3096 29.7686 13.5088 29.9443 13.6494C30.1201 13.79 30.3281 13.8604 30.5684 13.8604ZM31.4824 18.7207C31.5762 18.7207 31.6699 18.7002 31.7637 18.6592C31.8633 18.624 31.9512 18.5391 32.0273 18.4043C32.1035 18.2695 32.165 18.0703 32.2119 17.8066C32.2588 17.543 32.2822 17.1855 32.2822 16.7344V15.4248C31.8779 15.9111 31.5469 16.3711 31.2891 16.8047C31.0371 17.2441 30.9111 17.6543 30.9111 18.0352C30.9111 18.2168 30.9609 18.375 31.0605 18.5098C31.1602 18.6504 31.3008 18.7207 31.4824 18.7207ZM38.0215 13.7637C38.2266 13.7637 38.4346 13.7109 38.6455 13.6055C38.8623 13.5 39.0791 13.3359 39.2959 13.1133C39.5186 12.8906 39.7471 12.6035 39.9814 12.252C40.2158 11.8945 40.4561 11.4697 40.7021 10.9775L40.79 10.793L41.1504 11.0654L41.0625 11.25C40.7461 11.877 40.4297 12.4131 40.1133 12.8584C39.8027 13.3037 39.4951 13.667 39.1904 13.9482C38.8916 14.2295 38.5957 14.4346 38.3027 14.5635C38.0098 14.6924 37.7285 14.7568 37.459 14.7568C37.0781 14.7568 36.7383 14.6777 36.4395 14.5195C36.1406 14.3613 35.8887 14.1475 35.6836 13.8779C35.4785 13.6025 35.3232 13.2861 35.2178 12.9287C35.1064 12.5654 35.0508 12.1846 35.0508 11.7861C35.0508 11.1533 35.1387 10.5791 35.3145 10.0635C35.4844 9.54199 35.7129 9.09668 36 8.72754C36.293 8.3584 36.624 8.07129 36.9932 7.86621C37.3623 7.66113 37.7461 7.55859 38.1445 7.55859C38.5488 7.55859 38.8564 7.66113 39.0674 7.86621C39.2842 8.07129 39.3926 8.3291 39.3926 8.63965C39.3926 8.93848 39.3076 9.21973 39.1377 9.4834C38.9678 9.74121 38.7363 9.99609 38.4434 10.248C38.1562 10.4941 37.8223 10.7402 37.4414 10.9863C37.0605 11.2266 36.6592 11.4756 36.2373 11.7334C36.2783 12.0381 36.3486 12.3164 36.4482 12.5684C36.5479 12.8145 36.6738 13.0283 36.8262 13.21C36.9785 13.3857 37.1543 13.5234 37.3535 13.623C37.5527 13.7168 37.7754 13.7637 38.0215 13.7637ZM38.2939 8.90332C38.2939 8.66895 38.2295 8.48438 38.1006 8.34961C37.9775 8.21484 37.8252 8.14746 37.6436 8.14746C37.4912 8.14746 37.3301 8.20312 37.1602 8.31445C36.9902 8.41992 36.835 8.59277 36.6943 8.83301C36.5537 9.06738 36.4365 9.36914 36.3428 9.73828C36.249 10.1074 36.2021 10.5557 36.2021 11.083V11.2852C36.4014 11.1797 36.6211 11.042 36.8613 10.8721C37.1074 10.6963 37.3359 10.5029 37.5469 10.292C37.7578 10.0811 37.9336 9.8584 38.0742 9.62402C38.2207 9.38379 38.2939 9.14355 38.2939 8.90332ZM56.1885 9.84375C56.4111 9.84375 56.5928 9.78223 56.7334 9.65918C56.874 9.53613 56.9443 9.39844 56.9443 9.24609C56.9443 9.16992 56.9209 9.09375 56.874 9.01758C56.833 8.94141 56.7656 8.87402 56.6719 8.81543C56.584 8.75684 56.4639 8.70996 56.3115 8.6748C56.165 8.63965 55.9863 8.62207 55.7754 8.62207C55.5 8.62207 55.2334 8.6543 54.9756 8.71875C54.7178 8.7832 54.457 8.86523 54.1934 8.96484C54.4395 9.21094 54.6357 9.49805 54.7822 9.82617C54.9287 10.1484 55.002 10.5205 55.002 10.9424C55.002 11.5576 54.8789 12.1025 54.6328 12.5771C54.3926 13.0518 54.0674 13.4502 53.6572 13.7725C53.2529 14.0947 52.7842 14.3408 52.251 14.5107C51.7178 14.6748 51.1641 14.7568 50.5898 14.7568C50.0156 14.7568 49.4561 14.6719 48.9111 14.502C48.3662 14.332 47.877 14.0771 47.4434 13.7373C47.0156 13.3975 46.6699 12.9697 46.4062 12.4541C46.1484 11.9385 46.0195 11.3379 46.0195 10.6523C46.0195 10.0195 46.1191 9.46582 46.3184 8.99121C46.5234 8.51074 46.7842 8.10059 47.1006 7.76074C47.4229 7.41504 47.7773 7.13086 48.1641 6.9082C48.5508 6.68555 48.9287 6.5127 49.2979 6.38965C49.0693 6.27246 48.8438 6.12891 48.6211 5.95898C48.4043 5.78906 48.2109 5.59863 48.041 5.3877C47.8711 5.17676 47.7334 4.94531 47.6279 4.69336C47.5283 4.43555 47.4785 4.16016 47.4785 3.86719C47.4785 3.45703 47.5664 3.08496 47.7422 2.75098C47.918 2.41699 48.1465 2.13281 48.4277 1.89844C48.7148 1.66406 49.04 1.48535 49.4033 1.3623C49.7666 1.2334 50.1387 1.16895 50.5195 1.16895C50.9766 1.16895 51.3691 1.22168 51.6973 1.32715C52.0254 1.42676 52.292 1.55859 52.4971 1.72266C52.7021 1.88086 52.8516 2.0625 52.9453 2.26758C53.0449 2.47266 53.0947 2.6748 53.0947 2.87402C53.0947 3.04395 53.0625 3.20801 52.998 3.36621C52.9395 3.52441 52.8516 3.66504 52.7344 3.78809C52.623 3.90527 52.4854 3.99902 52.3213 4.06934C52.1572 4.13965 51.9756 4.1748 51.7764 4.1748C51.624 4.1748 51.4863 4.14844 51.3633 4.0957C51.2402 4.03711 51.1318 3.97266 51.0381 3.90234C50.9443 3.83203 50.8682 3.76172 50.8096 3.69141C50.751 3.62109 50.7129 3.57129 50.6953 3.54199L50.9854 3.36621C51.0146 3.39551 51.0557 3.43066 51.1084 3.47168C51.167 3.5127 51.2314 3.55371 51.3018 3.59473C51.3721 3.62988 51.4453 3.66211 51.5215 3.69141C51.6035 3.71484 51.6885 3.72656 51.7764 3.72656C52.0107 3.72656 52.1982 3.6416 52.3389 3.47168C52.4795 3.30176 52.5498 3.10254 52.5498 2.87402C52.5498 2.73926 52.5176 2.60449 52.4531 2.46973C52.3945 2.3291 52.3008 2.20313 52.1719 2.0918C52.043 1.97461 51.876 1.88086 51.6709 1.81055C51.4717 1.74023 51.2314 1.70508 50.9502 1.70508C50.5811 1.70508 50.2559 1.77246 49.9746 1.90723C49.6934 2.04199 49.459 2.22363 49.2715 2.45215C49.084 2.6748 48.9404 2.92969 48.8408 3.2168C48.7471 3.49805 48.7002 3.78809 48.7002 4.08691C48.7002 4.30957 48.7266 4.52637 48.7793 4.7373C48.8379 4.94824 48.9199 5.14746 49.0254 5.33496C49.1367 5.5166 49.2744 5.68359 49.4385 5.83594C49.6084 5.98242 49.8076 6.09961 50.0361 6.1875C50.1533 6.1582 50.2646 6.14062 50.3701 6.13477C50.4756 6.12305 50.5723 6.11719 50.6602 6.11719C50.8125 6.11719 50.9326 6.14062 51.0205 6.1875C51.1084 6.22852 51.1523 6.29004 51.1523 6.37207C51.1523 6.49512 51.1025 6.58887 51.0029 6.65332C50.9033 6.71777 50.7715 6.75 50.6074 6.75C50.5078 6.75 50.3994 6.74121 50.2822 6.72363C50.1709 6.70605 50.0508 6.67676 49.9219 6.63574C49.5176 6.72949 49.1631 6.89355 48.8584 7.12793C48.5537 7.35645 48.2988 7.63184 48.0938 7.9541C47.8887 8.27637 47.7334 8.63086 47.6279 9.01758C47.5283 9.39844 47.4785 9.78809 47.4785 10.1865C47.4785 10.667 47.5518 11.1416 47.6982 11.6104C47.8506 12.0791 48.0791 12.498 48.3838 12.8672C48.6885 13.2363 49.0664 13.5352 49.5176 13.7637C49.9688 13.9922 50.499 14.1064 51.1084 14.1064C51.5361 14.1064 51.9492 14.0391 52.3477 13.9043C52.752 13.7695 53.1064 13.5703 53.4111 13.3066C53.7217 13.043 53.9707 12.7178 54.1582 12.3311C54.3457 11.9443 54.4395 11.499 54.4395 10.9951C54.4395 10.5908 54.3721 10.2363 54.2373 9.93164C54.1025 9.62109 53.9238 9.35742 53.7012 9.14062C53.4609 9.24023 53.2207 9.33984 52.9805 9.43945C52.7461 9.53906 52.5029 9.62988 52.251 9.71191C52.0049 9.79395 51.7529 9.86133 51.4951 9.91406C51.2373 9.96094 50.9707 9.98438 50.6953 9.98438C50.4844 9.98438 50.2998 9.95801 50.1416 9.90527C49.9893 9.85254 49.8604 9.78516 49.7549 9.70312C49.6553 9.61523 49.5791 9.51562 49.5264 9.4043C49.4795 9.29297 49.4561 9.17578 49.4561 9.05273C49.4561 8.86523 49.5059 8.69824 49.6055 8.55176C49.7109 8.40527 49.8516 8.28223 50.0273 8.18262C50.2031 8.07715 50.4082 7.99805 50.6426 7.94531C50.8828 7.89258 51.1348 7.86621 51.3984 7.86621C51.6797 7.86621 51.9697 7.89844 52.2686 7.96289C52.5732 8.02148 52.8721 8.11523 53.165 8.24414C53.5342 8.0625 53.9238 7.90137 54.334 7.76074C54.7441 7.61426 55.1895 7.54102 55.6699 7.54102C55.9922 7.54102 56.2705 7.58496 56.5049 7.67285C56.7393 7.75488 56.9326 7.86328 57.085 7.99805C57.2432 8.13281 57.3574 8.28516 57.4277 8.45508C57.5039 8.625 57.542 8.79492 57.542 8.96484C57.542 9.12305 57.5127 9.27539 57.4541 9.42188C57.3955 9.56836 57.3076 9.7002 57.1904 9.81738C57.0791 9.93457 56.9414 10.0283 56.7773 10.0986C56.6133 10.1689 56.4287 10.2041 56.2236 10.2041L56.1885 9.84375ZM51.3984 8.2793C51.0645 8.2793 50.7861 8.32617 50.5635 8.41992C50.3408 8.50781 50.2295 8.62793 50.2295 8.78027C50.2295 8.87402 50.2822 8.95312 50.3877 9.01758C50.4932 9.07617 50.6631 9.10547 50.8975 9.10547C51.167 9.10547 51.4453 9.04688 51.7324 8.92969C52.0254 8.8125 52.3359 8.67188 52.6641 8.50781C52.4414 8.42578 52.2217 8.36719 52.0049 8.33203C51.7881 8.29688 51.5859 8.2793 51.3984 8.2793ZM18.2109 30.0771C18.2109 31.1318 18.3311 32.0518 18.5713 32.8369C18.8115 33.6221 19.1279 34.2754 19.5205 34.7969C19.9189 35.3184 20.3701 35.7109 20.874 35.9746C21.3838 36.2324 21.9053 36.3613 22.4385 36.3613C22.8193 36.3613 23.1943 36.291 23.5635 36.1504C23.9385 36.0098 24.3018 35.7988 24.6533 35.5176C25.0049 35.2363 25.3418 34.8848 25.6641 34.4629C25.9922 34.041 26.2969 33.5459 26.5781 32.9775L26.6748 32.793L27.0352 33.0654L26.9385 33.25C26.6162 33.9004 26.2588 34.4717 25.8662 34.9639C25.4795 35.4561 25.0664 35.8691 24.627 36.2031C24.1875 36.5312 23.7305 36.7803 23.2559 36.9502C22.7871 37.1201 22.3066 37.2051 21.8145 37.2051C21.3926 37.2051 20.9736 37.1436 20.5576 37.0205C20.1475 36.9033 19.7549 36.7246 19.3799 36.4844C19.0107 36.2383 18.665 35.9307 18.3428 35.5615C18.0264 35.1924 17.751 34.7617 17.5166 34.2695C17.2822 33.7715 17.0977 33.2119 16.9629 32.5908C16.834 31.9639 16.7695 31.2754 16.7695 30.5254C16.7695 29.5352 16.8516 28.6387 17.0156 27.8359C17.1855 27.0273 17.4111 26.3096 17.6924 25.6826C17.9795 25.0498 18.3105 24.502 18.6855 24.0391C19.0664 23.5762 19.4648 23.1953 19.8809 22.8965C20.2969 22.5918 20.7217 22.3662 21.1553 22.2197C21.5889 22.0732 22.0049 22 22.4033 22C22.9248 22 23.4053 22.0908 23.8447 22.2725C24.2842 22.4482 24.6621 22.7002 24.9785 23.0283C25.2949 23.3506 25.541 23.7461 25.7168 24.2148C25.8984 24.6777 25.9893 25.1934 25.9893 25.7617C25.9893 26.3066 25.9043 26.8193 25.7344 27.2998C25.5703 27.7803 25.3477 28.2021 25.0664 28.5654C24.791 28.9229 24.4717 29.207 24.1084 29.418C23.751 29.6289 23.376 29.7344 22.9834 29.7344C22.7197 29.7344 22.4736 29.6875 22.2451 29.5938C22.0166 29.5 21.8174 29.3682 21.6475 29.1982C21.4775 29.0283 21.3428 28.8203 21.2432 28.5742C21.1436 28.3281 21.0938 28.0557 21.0938 27.7568C21.0938 27.4697 21.1377 27.1943 21.2256 26.9307C21.3135 26.6611 21.4248 26.415 21.5596 26.1924C21.6943 25.9639 21.8408 25.7646 21.999 25.5947C22.1631 25.4189 22.3213 25.2812 22.4736 25.1816L22.7109 25.4189C22.5879 25.5596 22.4707 25.7119 22.3594 25.876C22.2539 26.0342 22.1602 26.207 22.0781 26.3945C21.9961 26.5762 21.9316 26.7725 21.8848 26.9834C21.8379 27.1943 21.8145 27.4229 21.8145 27.6689C21.8145 27.9209 21.8438 28.1465 21.9023 28.3457C21.9668 28.5449 22.0518 28.7148 22.1572 28.8555C22.2686 28.9961 22.3945 29.1045 22.5352 29.1807C22.6758 29.251 22.8252 29.2861 22.9834 29.2861C23.2002 29.2861 23.417 29.207 23.6338 29.0488C23.8506 28.8848 24.0439 28.6475 24.2139 28.3369C24.3838 28.0205 24.5215 27.6338 24.627 27.1768C24.7324 26.7197 24.7852 26.1924 24.7852 25.5947C24.7852 25.0557 24.7236 24.5898 24.6006 24.1973C24.4834 23.7988 24.3193 23.4707 24.1084 23.2129C23.8975 22.9551 23.6484 22.7646 23.3613 22.6416C23.0742 22.5127 22.7666 22.4482 22.4385 22.4482C22.2041 22.4482 21.9375 22.501 21.6387 22.6064C21.3398 22.7061 21.0322 22.873 20.7158 23.1074C20.4053 23.3418 20.1006 23.6523 19.8018 24.0391C19.5029 24.4199 19.2334 24.8945 18.9932 25.4629C18.7588 26.0254 18.5684 26.6875 18.4219 27.4492C18.2812 28.2109 18.2109 29.0869 18.2109 30.0771ZM32.001 34.5771C32.001 34.9111 32.0303 35.1924 32.0889 35.4209C32.1475 35.6494 32.25 35.7637 32.3965 35.7637C32.4844 35.7637 32.5781 35.7227 32.6777 35.6406C32.7832 35.5527 32.9033 35.4121 33.0381 35.2188C33.1729 35.0254 33.3252 34.7764 33.4951 34.4717C33.6709 34.1611 33.8701 33.7832 34.0928 33.3379L34.3564 32.793L34.7168 33.0654L34.4531 33.6104C34.207 34.1025 33.9756 34.5449 33.7588 34.9375C33.5479 35.3242 33.3457 35.6523 33.1523 35.9219C32.959 36.1914 32.7686 36.3994 32.5811 36.5459C32.3994 36.6865 32.2178 36.7568 32.0361 36.7568C31.8428 36.7568 31.6787 36.7041 31.5439 36.5986C31.415 36.4932 31.3066 36.3496 31.2188 36.168C31.1309 35.9805 31.0635 35.7666 31.0166 35.5264C30.9697 35.2803 30.9375 35.0195 30.9199 34.7441C30.7793 35.0254 30.624 35.2891 30.4541 35.5352C30.2842 35.7754 30.1055 35.9863 29.918 36.168C29.7363 36.3496 29.5459 36.4932 29.3467 36.5986C29.1475 36.7041 28.9482 36.7568 28.749 36.7568C28.4561 36.7568 28.1719 36.6953 27.8965 36.5723C27.6211 36.4492 27.375 36.2617 27.1582 36.0098C26.9473 35.7578 26.7773 35.4414 26.6484 35.0605C26.5195 34.6738 26.4551 34.2197 26.4551 33.6982C26.4551 33.0889 26.5342 32.5322 26.6924 32.0283C26.8506 31.5186 27.0645 31.082 27.334 30.7188C27.6035 30.3496 27.9141 30.0654 28.2656 29.8662C28.6172 29.6611 28.9863 29.5586 29.373 29.5586C29.6074 29.5586 29.8242 29.6113 30.0234 29.7168C30.2227 29.8223 30.3955 29.9512 30.542 30.1035C30.6943 30.25 30.8203 30.4082 30.9199 30.5781C31.0195 30.7422 31.0869 30.8828 31.1221 31L31.2275 30.1475C31.2393 30.0361 31.292 29.9424 31.3857 29.8662C31.4854 29.79 31.5938 29.7314 31.7109 29.6904C31.8281 29.6436 31.9424 29.6113 32.0537 29.5938C32.165 29.5703 32.2441 29.5586 32.291 29.5586C32.3613 29.5586 32.4082 29.5703 32.4316 29.5938C32.4551 29.6172 32.4668 29.6641 32.4668 29.7344C32.4668 29.8223 32.4404 30.001 32.3877 30.2705C32.3408 30.5342 32.2881 30.874 32.2295 31.29C32.1768 31.7002 32.124 32.1836 32.0713 32.7402C32.0244 33.2969 32.001 33.9092 32.001 34.5771ZM31.0342 32.2568C31.0342 31.9873 30.9932 31.7236 30.9111 31.4658C30.8291 31.2021 30.7178 30.9707 30.5771 30.7715C30.4365 30.5664 30.2725 30.4023 30.085 30.2793C29.9033 30.1562 29.71 30.0947 29.5049 30.0947C29.2529 30.0947 29.0156 30.168 28.793 30.3145C28.5762 30.4551 28.3857 30.6572 28.2217 30.9209C28.0635 31.1787 27.9375 31.4922 27.8438 31.8613C27.75 32.2246 27.7031 32.626 27.7031 33.0654C27.7031 33.9443 27.8408 34.6152 28.1162 35.0781C28.3916 35.5352 28.7578 35.7637 29.2148 35.7637C29.4141 35.7637 29.6191 35.6846 29.8301 35.5264C30.0469 35.3623 30.2432 35.1309 30.4189 34.832C30.6006 34.5273 30.7471 34.1582 30.8584 33.7246C30.9756 33.291 31.0342 32.8018 31.0342 32.2568ZM34.2686 32.9775L34.3564 32.793C34.4443 32.6172 34.5234 32.4355 34.5938 32.248C34.6699 32.0605 34.7344 31.8848 34.7871 31.7207C34.8398 31.5508 34.8809 31.4014 34.9102 31.2725C34.9395 31.1377 34.96 31.0352 34.9717 30.9648C34.8193 30.9473 34.6729 30.9092 34.5322 30.8506C34.3916 30.792 34.2686 30.7129 34.1631 30.6133C34.0576 30.5137 33.9756 30.3965 33.917 30.2617C33.8525 30.127 33.8203 29.9746 33.8203 29.8047C33.8203 29.6699 33.8438 29.5498 33.8906 29.4443C33.9375 29.3389 34.002 29.251 34.084 29.1807C34.1602 29.1104 34.248 29.0576 34.3477 29.0225C34.4414 28.9814 34.541 28.9609 34.6465 28.9609C34.7871 28.9609 34.9102 28.9902 35.0156 29.0488C35.1211 29.1074 35.209 29.1865 35.2793 29.2861C35.3496 29.3799 35.4023 29.4912 35.4375 29.6201C35.4727 29.7432 35.4902 29.8721 35.4902 30.0068C35.6543 30.0068 35.8301 29.9834 36.0176 29.9365C36.2109 29.8896 36.4043 29.8398 36.5977 29.7871C36.791 29.7285 36.9814 29.6758 37.1689 29.6289C37.3564 29.582 37.5293 29.5586 37.6875 29.5586C37.8223 29.5586 37.9307 29.5879 38.0127 29.6465C38.0947 29.6992 38.1357 29.79 38.1357 29.9189C38.1357 30.0127 38.1064 30.168 38.0479 30.3848C37.9951 30.6016 37.9277 30.8535 37.8457 31.1406C37.7637 31.4277 37.6729 31.7412 37.5732 32.0811C37.4795 32.415 37.3916 32.7549 37.3096 33.1006C37.2275 33.4404 37.1572 33.7715 37.0986 34.0938C37.0459 34.416 37.0195 34.7031 37.0195 34.9551C37.0195 35.2715 37.0547 35.4854 37.125 35.5967C37.1953 35.708 37.3213 35.7637 37.5029 35.7637C37.5791 35.7637 37.6729 35.7314 37.7842 35.667C37.9014 35.5967 38.042 35.4648 38.2061 35.2715C38.3701 35.0723 38.5635 34.791 38.7861 34.4277C39.0146 34.0586 39.2783 33.5752 39.5771 32.9775L39.665 32.793L40.0254 33.0654L39.9375 33.25C39.5859 33.9531 39.2725 34.5303 38.9971 34.9814C38.7217 35.4326 38.4668 35.79 38.2324 36.0537C38.0039 36.3174 37.7871 36.502 37.582 36.6074C37.377 36.707 37.1719 36.7568 36.9668 36.7568C36.6211 36.7568 36.3398 36.625 36.123 36.3613C35.9062 36.0977 35.7979 35.6904 35.7979 35.1396C35.7979 34.8408 35.8389 34.5303 35.9209 34.208C36.0029 33.8857 36.1055 33.5664 36.2285 33.25C36.3516 32.9277 36.4893 32.6113 36.6416 32.3008C36.7939 31.9902 36.9375 31.6973 37.0723 31.4219C37.2129 31.1406 37.3389 30.8799 37.4502 30.6396C37.5615 30.3994 37.6406 30.1885 37.6875 30.0068L37.6348 29.9541C37.541 29.9541 37.415 30.0039 37.2568 30.1035C37.0986 30.2031 36.9199 30.3174 36.7207 30.4463C36.5273 30.5693 36.3193 30.6865 36.0967 30.7979C35.874 30.9092 35.6484 30.9766 35.4199 31C35.4082 31.082 35.3818 31.2021 35.3408 31.3604C35.3057 31.5186 35.2559 31.6943 35.1914 31.8877C35.127 32.0811 35.0537 32.2803 34.9717 32.4854C34.8896 32.6904 34.8047 32.8838 34.7168 33.0654L34.6289 33.25L34.2686 32.9775ZM34.6992 29.4531C34.6465 29.4531 34.6025 29.4707 34.5674 29.5059C34.5322 29.541 34.5146 29.582 34.5146 29.6289C34.5146 29.6992 34.5322 29.7607 34.5674 29.8135C34.6025 29.8604 34.6465 29.9014 34.6992 29.9365C34.752 29.9658 34.8047 29.9893 34.8574 30.0068C34.916 30.0186 34.9658 30.0244 35.0068 30.0244C35.0068 29.8604 34.9805 29.7256 34.9277 29.6201C34.875 29.5088 34.7988 29.4531 34.6992 29.4531ZM42.5303 30.1826C42.3604 30.1826 42.1963 30.2441 42.0381 30.3672C41.8857 30.4844 41.7393 30.6484 41.5986 30.8594C41.458 31.0645 41.3203 31.3076 41.1855 31.5889C41.0566 31.8643 40.9277 32.1602 40.7988 32.4766V32.582C40.7812 33.0977 40.7637 33.6455 40.7461 34.2256C40.7344 34.8057 40.7285 35.4385 40.7285 36.124C40.7285 36.2412 40.6875 36.3408 40.6055 36.4229C40.5293 36.499 40.4385 36.5635 40.333 36.6162C40.2275 36.6631 40.1191 36.6982 40.0078 36.7217C39.8965 36.7451 39.8057 36.7568 39.7354 36.7568C39.6475 36.7568 39.5654 36.7305 39.4893 36.6777C39.4131 36.625 39.375 36.5078 39.375 36.3262C39.375 36.2383 39.3838 36.1299 39.4014 36.001C39.4189 35.8662 39.4424 35.7227 39.4717 35.5703C39.4951 35.418 39.5244 35.2627 39.5596 35.1045C39.5889 34.9404 39.6182 34.7881 39.6475 34.6475C39.6475 34.1494 39.6475 33.7012 39.6475 33.3027C39.6416 32.9043 39.6387 32.5498 39.6387 32.2393C39.6387 31.9287 39.6387 31.6562 39.6387 31.4219C39.6328 31.1875 39.6299 30.9854 39.6299 30.8154C39.6299 30.5342 39.6357 30.3291 39.6475 30.2002C39.6533 30.0654 39.665 29.9717 39.6826 29.9189C39.7119 29.8369 39.7646 29.7725 39.8408 29.7256C39.9229 29.6787 40.0078 29.6436 40.0957 29.6201C40.1836 29.5908 40.2715 29.5732 40.3594 29.5674C40.4473 29.5615 40.5146 29.5586 40.5615 29.5586C40.6729 29.5586 40.7461 29.5908 40.7812 29.6553C40.8164 29.7197 40.834 29.8193 40.834 29.9541C40.834 30.2588 40.834 30.5342 40.834 30.7803C40.834 31.0264 40.8281 31.2725 40.8164 31.5186C40.9277 31.2549 41.0566 31.0059 41.2031 30.7715C41.3555 30.5312 41.5225 30.3232 41.7041 30.1475C41.8857 29.9658 42.0762 29.8223 42.2754 29.7168C42.4805 29.6113 42.6914 29.5586 42.9082 29.5586C43.1719 29.5586 43.3887 29.6143 43.5586 29.7256C43.7344 29.8311 43.8721 29.9805 43.9717 30.1738C44.0771 30.3672 44.1533 30.5957 44.2002 30.8594C44.2529 31.1172 44.2881 31.3984 44.3057 31.7031C44.4697 31.4043 44.6455 31.126 44.833 30.8682C45.0264 30.6045 45.2285 30.376 45.4395 30.1826C45.6562 29.9893 45.8818 29.8369 46.1162 29.7256C46.3564 29.6143 46.6055 29.5586 46.8633 29.5586C47.3086 29.5586 47.6338 29.6992 47.8389 29.9805C48.0439 30.2559 48.1465 30.6309 48.1465 31.1055C48.1465 31.4043 48.123 31.7383 48.0762 32.1074C48.0293 32.4766 47.9795 32.8516 47.9268 33.2324C47.874 33.6074 47.8242 33.9766 47.7773 34.3398C47.7305 34.7031 47.707 35.0342 47.707 35.333C47.707 35.6963 47.7979 35.8779 47.9795 35.8779C48.0732 35.8779 48.1758 35.8223 48.2871 35.7109C48.3984 35.5938 48.5244 35.418 48.665 35.1836C48.8115 34.9434 48.9785 34.6416 49.166 34.2783C49.3594 33.915 49.582 33.4814 49.834 32.9775L49.9219 32.793L50.2822 33.0654L50.1943 33.25C49.8486 33.9414 49.5527 34.5127 49.3066 34.9639C49.0664 35.415 48.8496 35.7754 48.6562 36.0449C48.4629 36.3086 48.2783 36.4932 48.1025 36.5986C47.9326 36.7041 47.7422 36.7568 47.5312 36.7568C47.4082 36.7568 47.2881 36.7393 47.1709 36.7041C47.0537 36.6689 46.9512 36.6074 46.8633 36.5195C46.7754 36.4316 46.7051 36.3145 46.6523 36.168C46.5996 36.0156 46.5732 35.8223 46.5732 35.5879C46.5732 35.2363 46.5967 34.8408 46.6436 34.4014C46.6904 33.9619 46.7432 33.5225 46.8018 33.083C46.8604 32.6436 46.9131 32.2305 46.96 31.8438C47.0068 31.4512 47.0303 31.1318 47.0303 30.8857C47.0303 30.6689 46.9834 30.4961 46.8896 30.3672C46.7959 30.2324 46.6553 30.165 46.4678 30.165C46.2803 30.165 46.084 30.2383 45.8789 30.3848C45.6797 30.5312 45.4834 30.7217 45.29 30.9561C45.1025 31.1846 44.9238 31.4424 44.7539 31.7295C44.5898 32.0166 44.4463 32.3008 44.3232 32.582C44.3232 33.1973 44.3174 33.7363 44.3057 34.1992C44.2939 34.6562 44.2764 35.043 44.2529 35.3594C44.2354 35.6758 44.209 35.9277 44.1738 36.1152C44.1387 36.2969 44.1006 36.4199 44.0596 36.4844C44.0303 36.5254 43.9805 36.5635 43.9102 36.5986C43.8398 36.6338 43.7607 36.6631 43.6729 36.6865C43.5908 36.71 43.5088 36.7275 43.4268 36.7393C43.3506 36.751 43.292 36.7568 43.251 36.7568C43.1572 36.7568 43.0752 36.7305 43.0049 36.6777C42.9404 36.6191 42.9082 36.5078 42.9082 36.3438C42.9082 36.2676 42.9141 36.165 42.9258 36.0361C42.9434 35.9072 42.9639 35.7637 42.9873 35.6055C43.0107 35.4473 43.0371 35.2773 43.0664 35.0957C43.0957 34.9141 43.125 34.7295 43.1543 34.542C43.1602 34.3662 43.166 34.1699 43.1719 33.9531C43.1777 33.7363 43.1836 33.5225 43.1895 33.3115C43.1953 33.0947 43.1982 32.8896 43.1982 32.6963C43.2041 32.4971 43.207 32.3271 43.207 32.1865C43.207 31.8877 43.1982 31.6152 43.1807 31.3691C43.1631 31.123 43.1279 30.9121 43.0752 30.7363C43.0283 30.5605 42.9609 30.4258 42.873 30.332C42.7852 30.2324 42.6709 30.1826 42.5303 30.1826ZM52.5234 35.7637C52.7285 35.7637 52.9365 35.7109 53.1475 35.6055C53.3643 35.5 53.5811 35.3359 53.7979 35.1133C54.0205 34.8906 54.249 34.6035 54.4834 34.252C54.7178 33.8945 54.958 33.4697 55.2041 32.9775L55.292 32.793L55.6523 33.0654L55.5645 33.25C55.248 33.877 54.9316 34.4131 54.6152 34.8584C54.3047 35.3037 53.9971 35.667 53.6924 35.9482C53.3936 36.2295 53.0977 36.4346 52.8047 36.5635C52.5117 36.6924 52.2305 36.7568 51.9609 36.7568C51.5801 36.7568 51.2402 36.6777 50.9414 36.5195C50.6426 36.3613 50.3906 36.1475 50.1855 35.8779C49.9805 35.6025 49.8252 35.2861 49.7197 34.9287C49.6084 34.5654 49.5527 34.1846 49.5527 33.7861C49.5527 33.1533 49.6406 32.5791 49.8164 32.0635C49.9863 31.542 50.2148 31.0967 50.502 30.7275C50.7949 30.3584 51.126 30.0713 51.4951 29.8662C51.8643 29.6611 52.248 29.5586 52.6465 29.5586C53.0508 29.5586 53.3584 29.6611 53.5693 29.8662C53.7861 30.0713 53.8945 30.3291 53.8945 30.6396C53.8945 30.9385 53.8096 31.2197 53.6396 31.4834C53.4697 31.7412 53.2383 31.9961 52.9453 32.248C52.6582 32.4941 52.3242 32.7402 51.9434 32.9863C51.5625 33.2266 51.1611 33.4756 50.7393 33.7334C50.7803 34.0381 50.8506 34.3164 50.9502 34.5684C51.0498 34.8145 51.1758 35.0283 51.3281 35.21C51.4805 35.3857 51.6562 35.5234 51.8555 35.623C52.0547 35.7168 52.2773 35.7637 52.5234 35.7637ZM52.7959 30.9033C52.7959 30.6689 52.7314 30.4844 52.6025 30.3496C52.4795 30.2148 52.3271 30.1475 52.1455 30.1475C51.9932 30.1475 51.832 30.2031 51.6621 30.3145C51.4922 30.4199 51.3369 30.5928 51.1963 30.833C51.0557 31.0674 50.9385 31.3691 50.8447 31.7383C50.751 32.1074 50.7041 32.5557 50.7041 33.083V33.2852C50.9033 33.1797 51.123 33.042 51.3633 32.8721C51.6094 32.6963 51.8379 32.5029 52.0488 32.292C52.2598 32.0811 52.4355 31.8584 52.5762 31.624C52.7227 31.3838 52.7959 31.1436 52.7959 30.9033ZM58.6758 30.165C58.5117 30.165 58.3271 30.2383 58.1221 30.3848C57.9229 30.5312 57.7207 30.7217 57.5156 30.9561C57.3105 31.1846 57.1113 31.4424 56.918 31.7295C56.7305 32.0166 56.5664 32.3008 56.4258 32.582C56.4082 33.0977 56.3906 33.6602 56.373 34.2695C56.3613 34.8789 56.3555 35.5293 56.3555 36.2207C56.3555 36.3086 56.3145 36.3877 56.2324 36.458C56.1562 36.5225 56.0654 36.5781 55.96 36.625C55.8545 36.666 55.7461 36.6982 55.6348 36.7217C55.5234 36.7451 55.4326 36.7568 55.3623 36.7568C55.2744 36.7568 55.1924 36.7305 55.1162 36.6777C55.04 36.625 55.002 36.5078 55.002 36.3262C55.002 36.2383 55.0107 36.1299 55.0283 36.001C55.0459 35.8662 55.0693 35.7227 55.0986 35.5703C55.1221 35.418 55.1514 35.2627 55.1865 35.1045C55.2158 34.9404 55.2451 34.7881 55.2744 34.6475V30.3496C55.2744 30.2324 55.2773 30.1416 55.2832 30.0771C55.2832 30.0068 55.292 29.9541 55.3096 29.9189C55.3447 29.8369 55.4062 29.7725 55.4941 29.7256C55.582 29.6787 55.6758 29.6436 55.7754 29.6201C55.875 29.5908 55.9717 29.5732 56.0654 29.5674C56.1592 29.5615 56.2324 29.5586 56.2852 29.5586C56.3848 29.5586 56.4521 29.585 56.4873 29.6377C56.5283 29.6904 56.5488 29.7842 56.5488 29.9189C56.5488 29.9014 56.5342 30.0449 56.5049 30.3496C56.4814 30.6543 56.4609 31.0908 56.4434 31.6592C56.6191 31.3838 56.8096 31.1201 57.0146 30.8682C57.2197 30.6162 57.4336 30.3936 57.6562 30.2002C57.8789 30.0068 58.1074 29.8516 58.3418 29.7344C58.582 29.6172 58.8252 29.5586 59.0713 29.5586C59.5107 29.5586 59.833 29.6992 60.0381 29.9805C60.2432 30.2559 60.3457 30.6309 60.3457 31.1055C60.3457 31.4043 60.3252 31.7383 60.2842 32.1074C60.249 32.4707 60.2051 32.8428 60.1523 33.2236C60.1055 33.5986 60.0615 33.9678 60.0205 34.3311C59.9854 34.6885 59.9678 35.0166 59.9678 35.3154C59.9678 35.7021 60.0879 35.8955 60.3281 35.8955C60.4043 35.8955 60.4922 35.8574 60.5918 35.7812C60.6973 35.6992 60.8262 35.5498 60.9785 35.333C61.1367 35.1162 61.3242 34.8203 61.541 34.4453C61.7578 34.0645 62.0156 33.5752 62.3145 32.9775L62.4023 32.793L62.7627 33.0654L62.6748 33.25C62.3232 33.9531 62.0098 34.5303 61.7344 34.9814C61.4648 35.4326 61.2188 35.79 60.9961 36.0537C60.7734 36.3174 60.5654 36.502 60.3721 36.6074C60.1787 36.707 59.9854 36.7568 59.792 36.7568C59.6689 36.7568 59.5459 36.7393 59.4229 36.7041C59.2998 36.6689 59.1914 36.6074 59.0977 36.5195C59.0039 36.4316 58.9277 36.3145 58.8691 36.168C58.8105 36.0156 58.7812 35.8223 58.7812 35.5879C58.7812 35.2363 58.8047 34.8408 58.8516 34.4014C58.8984 33.9619 58.9512 33.5225 59.0098 33.083C59.0684 32.6436 59.1211 32.2305 59.168 31.8438C59.2148 31.4512 59.2383 31.1318 59.2383 30.8857C59.2383 30.6689 59.1914 30.4961 59.0977 30.3672C59.0039 30.2324 58.8633 30.165 58.6758 30.165Z" fill="black"/>
</svg>
